<?xml version="1.0" encoding="UTF-8"?>
<svg version="1.1" xmlns="http://www.w3.org/2000/svg" width="512" height="512">
<path d="M0 0 C2.65637654 1.64248672 3.5820938 2.31588562 5 5 C5.76918878 9.69045439 5.67497686 14.38121458 5.63491821 19.12072754 C5.64067918 20.59404289 5.64862014 22.06735105 5.65855443 23.54064417 C5.67945486 27.59025143 5.66909841 31.63927064 5.65362334 35.68888021 C5.6423267 40.05570441 5.65976414 44.42242635 5.67352295 48.78923035 C5.69577797 57.34418743 5.69094411 65.89892542 5.67645974 74.45389116 C5.66517639 81.40550244 5.66363268 88.35705224 5.66907883 95.30867004 C5.66984499 96.29735294 5.67061116 97.28603584 5.67140054 98.30467883 C5.67299914 100.31305152 5.6746202 102.32142419 5.6762635 104.32979685 C5.69052763 123.17062952 5.67411785 142.01134063 5.64726166 160.85215336 C5.62492229 177.02503162 5.62880223 193.19773045 5.65185547 209.37060547 C5.67860174 228.14314845 5.68915427 246.91558484 5.67379415 265.68814421 C5.67220137 267.68920611 5.67062952 269.69026802 5.66907883 271.69132996 C5.66830745 272.67593882 5.66753607 273.66054769 5.66674132 274.67499319 C5.6624208 281.6197653 5.66971845 288.56446991 5.68147659 295.50923157 C5.6954871 303.97046544 5.69173222 312.43146733 5.66507287 320.89267457 C5.65191509 325.21132689 5.64681546 329.52959218 5.66331863 333.84824181 C5.67819102 337.79984518 5.67007574 341.75070192 5.64343087 345.70223731 C5.63783426 347.13351918 5.64071287 348.5648638 5.65280981 349.99610549 C5.74681062 362.03927835 5.74681062 362.03927835 2.66309166 365.28438568 C-0.46226981 367.297803 -3.44238775 368.64230216 -6.94140625 369.91015625 C-7.61248413 370.15868347 -8.28356201 370.40721069 -8.97497559 370.66326904 C-10.41600101 371.19612371 -11.85916805 371.72321618 -13.30422974 372.24502563 C-17.17356881 373.64569302 -21.02327085 375.09863085 -24.875 376.546875 C-25.65359879 376.83863113 -26.43219757 377.13038727 -27.23439026 377.4309845 C-49.80641429 385.92084681 -71.4740609 396.35843318 -93.06658936 407.04437256 C-94.92213262 407.96151247 -96.77929251 408.87527248 -98.63720703 409.78759766 C-115.46201691 418.05637327 -132.2694586 426.46583159 -148.30859375 436.1953125 C-149.16203369 436.70819824 -150.01547363 437.22108398 -150.89477539 437.74951172 C-152.49365955 438.71680594 -154.08356488 439.69917885 -155.66186523 440.69970703 C-160.71606439 443.75890225 -164.08159931 444.67821673 -170 444 C-172.43119623 442.12984906 -173.64069173 440.71861655 -175 438 C-175.09945748 436.16051784 -175.13389276 434.31739583 -175.1386652 432.47523308 C-175.14413964 431.29386328 -175.14961409 430.11249347 -175.15525442 428.89532459 C-175.15623253 427.58600975 -175.15721064 426.27669491 -175.15821838 424.92770386 C-175.16278143 423.53179377 -175.16778107 422.13588505 -175.17318195 420.73997796 C-175.18680181 416.8907677 -175.19419251 413.04156631 -175.20060861 409.19233823 C-175.20859571 405.0464481 -175.22229927 400.90057652 -175.23532104 396.75469971 C-175.25710784 389.56724501 -175.27524425 382.37978847 -175.29092598 375.19231796 C-175.31360458 364.80034495 -175.34175017 354.40839246 -175.37124526 344.01643683 C-175.41894586 327.15761407 -175.46220334 310.29878293 -175.50268555 293.43994141 C-175.54202793 277.05972644 -175.58345112 260.67951892 -175.62768555 244.29931641 C-175.63040982 243.29023735 -175.63313409 242.28115829 -175.63594092 241.24150108 C-175.64962019 236.17942617 -175.6633405 231.11735137 -175.67708123 226.05527663 C-175.79108477 184.0368666 -175.89788553 142.0184405 -176 100 C-179.76898475 98.70806245 -183.54227835 97.42917073 -187.31640625 96.15234375 C-188.36944946 95.79120483 -189.42249268 95.43006592 -190.50744629 95.0579834 C-209.02039028 88.81818513 -227.30708922 86.7638888 -246.75 86.75 C-248.02837738 86.74898788 -248.02837738 86.74898788 -249.33258057 86.74795532 C-287.24447636 86.79504702 -324.35362671 91.96158521 -361.45581055 99.50683594 C-364.29420421 100.05702836 -367.14811182 100.5246853 -370 101 C-369.67 218.48 -369.34 335.96 -369 457 C-360.75 455.35 -352.5 453.7 -344 452 C-338.83236723 451.07860133 -333.68396855 450.18048138 -328.5 449.375 C-327.85032257 449.27360718 -327.20064514 449.17221436 -326.53128052 449.06774902 C-303.20759114 445.46287705 -279.58975726 443.53653731 -256 443 C-255.15759766 442.97808594 -254.31519531 442.95617187 -253.44726562 442.93359375 C-226.65058925 442.31186112 -200.76044716 445.64331328 -175.71118164 455.49658203 C-165.83918376 459.24097946 -158.83830689 456.78966353 -149.125 453.75 C-88.89192276 435.64604157 -22.25903025 441.93524244 38 457 C38 339.52 38 222.04 38 101 C35.03 100.67 32.06 100.34 29 100 C24.96825704 98.38730281 23.42057863 97.63086795 21 94 C20.33665008 87.03482587 20.33665008 87.03482587 22.5625 83.5625 C28.56507946 79.71469265 35.07741042 81.22340661 41.625 82.625 C42.45773437 82.77839844 43.29046875 82.93179688 44.1484375 83.08984375 C44.95796875 83.25871094 45.7675 83.42757812 46.6015625 83.6015625 C47.32682129 83.74932129 48.05208008 83.89708008 48.79931641 84.04931641 C52.02281044 85.44184866 53.74456179 87.32177442 56 90 C56.62674582 93.07104635 56.62674582 93.07104635 56.6292057 96.58272552 C56.64010651 97.55910307 56.64010651 97.55910307 56.65122753 98.5552054 C56.66949974 100.73998735 56.6521148 102.9230185 56.63491821 105.10778809 C56.64067861 106.68834758 56.64861918 108.26890038 56.65855443 109.84943914 C56.67946258 114.1954739 56.66909477 118.54096099 56.65362334 122.88699794 C56.64232991 127.5728408 56.65976255 132.25858821 56.67352295 136.94441223 C56.69578138 146.12501469 56.69094257 155.30541301 56.67645974 164.48602355 C56.66517774 171.94583351 56.6636321 179.40558618 56.66907883 186.86540222 C56.66984499 187.92624451 56.67061116 188.9870868 56.67140054 190.08007583 C56.67299913 192.23501052 56.6746202 194.3899452 56.6762635 196.54487985 C56.69052863 216.76202252 56.67411627 236.97905191 56.64726166 257.19617599 C56.62492221 274.55157641 56.62880212 291.90680963 56.65185547 309.26220703 C56.67859996 329.4059285 56.68915526 349.54955063 56.67379415 369.69328737 C56.67220137 371.84039083 56.67062952 373.98749429 56.66907883 376.13459778 C56.66830745 377.19107351 56.66753607 378.24754924 56.66674132 379.33603939 C56.66242027 386.788763 56.6697196 394.24142371 56.68147659 401.69413757 C56.69548512 410.77386843 56.69173636 419.85338311 56.66507287 428.93308914 C56.65191248 433.56767419 56.64682002 438.20189853 56.66331863 442.83648109 C56.67818542 447.07673206 56.67008467 451.31628696 56.64343087 455.55647451 C56.63783193 457.092736 56.640718 458.62905594 56.65280981 460.16528004 C56.66796481 462.25012018 56.65248057 464.33256069 56.6292057 466.41727448 C56.62839394 467.5761286 56.62758218 468.73498273 56.62674582 469.92895365 C55.80173317 473.97150488 54.20290488 475.47788096 51 478 C44.53599809 478.83894493 38.94967741 477.10963304 32.75 475.375 C-1.66412157 466.32265471 -37.51453961 462.84072167 -73 462 C-74.20785156 461.95875 -75.41570312 461.9175 -76.66015625 461.875 C-103.64351629 461.31792418 -130.53422506 467.51140835 -156 476 C-156.33 481.94 -156.66 487.88 -157 494 C-129.74022818 493.93885625 -102.48055203 493.86199557 -75.22088528 493.76428509 C-62.5638506 493.71931278 -49.90684416 493.67990137 -37.24975586 493.65356445 C-26.21829727 493.63059607 -15.1869279 493.5972109 -4.15554005 493.55129844 C1.68590206 493.52735072 7.52725572 493.50863204 13.3687458 493.50238609 C18.86724828 493.49634234 24.36552439 493.47636781 29.8639431 493.44572449 C31.88152114 493.43693295 33.89912874 493.43322398 35.91672516 493.43499184 C38.67334712 493.43664456 41.42927901 493.41994524 44.18580627 493.39872742 C44.98251553 493.40357499 45.77922478 493.40842257 46.60007674 493.41341704 C54.31859192 493.31550247 59.77095709 490.72933483 65.4921875 485.546875 C70.26826181 480.64706819 71.12294726 475.82918432 71.13307858 469.22748661 C71.13731962 468.04173481 71.14156067 466.85598301 71.14593023 465.63429934 C71.1455441 464.33032983 71.14515797 463.02636032 71.14476013 461.68287659 C71.14789412 460.28467948 71.15146899 458.8864833 71.15544754 457.48828834 C71.16514843 453.64184384 71.16869648 449.79541419 71.17129052 445.94895923 C71.17518357 441.80233034 71.18482084 437.65571457 71.19384766 433.50909424 C71.2087896 426.32222829 71.22033259 419.13536338 71.22979546 411.94848824 C71.24366296 401.55197911 71.26484963 391.15549432 71.28822399 380.75900268 C71.32614748 363.88483239 71.36111227 347.01065771 71.39282227 330.13647461 C71.39472276 329.12622976 71.39662325 328.11598491 71.39858133 327.07512658 C71.42541948 312.73486315 71.44929208 298.3945963 71.47196633 284.05432575 C71.47436229 282.53941326 71.47436229 282.53941326 71.47680664 280.99389648 C71.47840011 279.98518289 71.47999357 278.9764693 71.48163532 277.93718863 C71.50838719 261.12808541 71.54277896 244.31900818 71.58346039 227.50993294 C71.6082556 217.13755892 71.62657099 206.76521289 71.636616 196.39281391 C71.643998 189.28782009 71.65851058 182.18286383 71.67868023 175.07789487 C71.69008888 170.97606847 71.69820464 166.87430272 71.69767189 162.77245903 C71.69724499 159.01902533 71.70592928 155.2657282 71.72192169 151.51232957 C71.7280604 149.50804373 71.72435554 147.50373526 71.72032636 145.49944407 C71.72717516 144.31108452 71.73402395 143.12272497 71.74108028 141.89835453 C71.74281653 140.87261989 71.74455278 139.84688524 71.74634165 138.79006773 C72.08474377 135.06787667 73.09474938 132.19912908 75.34765625 129.21484375 C77.47737187 127.64902447 78.81048979 127.56693003 81.4375 127.5625 C82.19933594 127.54316406 82.96117187 127.52382812 83.74609375 127.50390625 C86.89426561 128.19683143 87.98622039 129.51103087 90 132 C90.50139666 134.71026146 90.50139666 134.71026146 90.50336456 137.88348579 C90.51379555 139.09402126 90.52422654 140.30455673 90.53497362 141.5517751 C90.52632511 142.89691537 90.51729847 144.24205324 90.50793457 145.58718872 C90.51254221 147.01482622 90.5188942 148.44245898 90.52684355 149.87008178 C90.54358036 153.79821296 90.53527086 157.72595667 90.52289867 161.65408945 C90.51386769 165.88876917 90.52780852 170.12338112 90.53881836 174.35804749 C90.55663186 182.65745018 90.55275023 190.9567084 90.5411678 199.25611682 C90.53214121 206.00318334 90.53090613 212.75020931 90.53526306 219.49728012 C90.53587599 220.45690128 90.53648893 221.41652244 90.53712043 222.40522303 C90.53839932 224.3546386 90.53969618 226.30405415 90.5410108 228.25346969 C90.55242583 246.54791397 90.53929034 264.84227817 90.51780933 283.13670932 C90.49995462 298.82815891 90.50302724 314.51949007 90.52148438 330.2109375 C90.54290431 348.42976516 90.55130907 366.64852246 90.53903532 384.86736095 C90.53776113 386.81151572 90.53650365 388.7556705 90.53526306 390.69982529 C90.53464596 391.65638448 90.53402886 392.61294367 90.53339306 393.5984895 C90.52994225 400.33300194 90.53576306 407.06746972 90.54518127 413.80197525 C90.55641586 422.01602579 90.55333126 430.22992348 90.5320583 438.44395657 C90.52156486 442.63356001 90.51739656 446.8229089 90.53065491 451.0125103 C90.5426213 454.85206246 90.53594691 458.69112544 90.5147447 462.53063355 C90.50819762 464.56901116 90.52117717 466.60742304 90.53497362 468.64576447 C90.42943741 481.05174051 86.54207734 491.16662423 77.89453125 500.19921875 C69.63005189 507.89471502 60.76820785 512.32476866 49.32429886 512.25726891 C48.56735709 512.26077498 47.81041533 512.26428105 47.03053594 512.26789337 C44.4915771 512.27720468 41.95284776 512.27228476 39.41387939 512.26742554 C37.57616513 512.27116193 35.73845245 512.27576341 33.90074229 512.28115618 C28.84848441 512.29340294 23.79629267 512.29312374 18.74402332 512.29076743 C13.29602345 512.29035969 7.8480449 512.30139437 2.40005493 512.31088257 C-8.27462981 512.32750284 -18.94929247 512.33299258 -29.62398908 512.33410732 C-38.30034701 512.33505733 -46.97669765 512.33916526 -55.65305328 512.34550858 C-80.24748883 512.36312394 -104.84190793 512.37235915 -129.43634972 512.37084763 C-130.43061734 512.37078779 -130.43061734 512.37078779 -131.44497117 512.37072675 C-132.78540574 512.37064587 -134.12584032 512.37056228 -135.46627489 512.37047596 C-156.31869032 512.36925061 -177.17104069 512.38426093 -198.0234375 512.41162109 C-221.45377731 512.4423511 -244.88407748 512.45952769 -268.31443906 512.45769465 C-280.7192259 512.45703043 -293.12393938 512.46253679 -305.52870941 512.48405075 C-316.09043628 512.50225072 -326.65205654 512.50661959 -337.21379229 512.4930319 C-342.60235654 512.48649627 -347.99071616 512.4864067 -353.37926102 512.5037384 C-358.31413141 512.51944763 -363.24863459 512.5166273 -368.18349591 512.49917014 C-369.96679522 512.49609552 -371.75012178 512.49975 -373.53338894 512.51089029 C-388.0360887 512.59547522 -399.21595328 510.11810816 -410.1640625 500 C-417.15929605 492.66417456 -422.11676246 483.47984717 -422.13422108 473.22280216 C-422.13867892 472.01055755 -422.14313676 470.79831293 -422.14772969 469.54933363 C-422.1476404 468.19711942 -422.14745054 466.84490522 -422.14717102 465.49269104 C-422.15046968 464.0616459 -422.15419526 462.63060169 -422.1583125 461.19955868 C-422.16833987 457.25771165 -422.17205046 453.31587986 -422.17470181 449.37402189 C-422.17860253 445.12650808 -422.18818085 440.87900635 -422.19691467 436.63150024 C-422.21668289 426.37087494 -422.22674453 416.11024864 -422.23564246 405.84960905 C-422.24002369 401.0210607 -422.24539083 396.19251346 -422.25063133 391.36396599 C-422.26764193 375.31974929 -422.28213796 359.27553327 -422.28938007 343.23130894 C-422.29129004 339.06721051 -422.29321037 334.90311208 -422.29516602 330.73901367 C-422.29564976 329.70401609 -422.2961335 328.66901851 -422.2966319 327.60265737 C-422.30493921 310.82164687 -422.33028869 294.0407075 -422.36274669 277.25972808 C-422.39577747 260.04274341 -422.41382511 242.82579495 -422.41702431 225.60877842 C-422.41919282 215.93721063 -422.42799139 206.26574664 -422.45348549 196.59420967 C-422.47513795 188.36095465 -422.48326982 180.12782863 -422.47351871 171.89454836 C-422.46895845 167.69150307 -422.47095979 163.48872425 -422.49028015 159.2857151 C-422.50780192 155.44091056 -422.50700457 151.59656907 -422.49138286 147.75176036 C-422.48898998 146.35810821 -422.49341666 144.96442492 -422.50521151 143.57082064 C-422.52021533 141.68161659 -422.50832877 139.79225548 -422.49498463 137.90303898 C-422.49596144 136.85208044 -422.49693824 135.8011219 -422.49794465 134.71831614 C-421.87259345 131.30447836 -420.68967236 130.12375938 -418 128 C-414.93542441 127.26622838 -412.09181106 127.43165238 -409 128 C-405.70976507 130.30316445 -404.7186074 132.15058399 -404 136 C-403.90827059 137.92061015 -403.8716513 139.84412832 -403.86971474 141.76692677 C-403.86609039 142.95144517 -403.86246604 144.13596357 -403.85873187 145.35637647 C-403.86033424 147.31028437 -403.86033424 147.31028437 -403.86196899 149.30366516 C-403.85955093 150.70043667 -403.85668867 152.09720747 -403.85341966 153.49397725 C-403.84566249 157.33656272 -403.84404703 161.17913034 -403.84336853 165.02172267 C-403.84152953 169.16429811 -403.83392307 173.30686308 -403.82688904 177.44943237 C-403.81536027 184.62974733 -403.8071176 191.81005995 -403.80076981 198.99038124 C-403.79044736 210.33850784 -403.76988491 221.68660513 -403.74765015 233.03471375 C-403.74017036 236.91649713 -403.73275664 240.79828065 -403.72536278 244.6800642 C-403.72258693 246.13524045 -403.72258693 246.13524045 -403.719755 247.61981419 C-403.69882519 258.66442731 -403.67999801 269.70904367 -403.66210938 280.75366211 C-403.6596521 282.26824245 -403.6596521 282.26824245 -403.65714519 283.81342038 C-403.63085676 300.17844403 -403.61221514 316.54346994 -403.59551747 332.90850578 C-403.57810124 349.70632712 -403.54926133 366.50410414 -403.5106281 383.30189008 C-403.48722087 393.66505964 -403.47323288 404.02815694 -403.47130047 414.39135315 C-403.46919225 421.49263762 -403.45627272 428.59385018 -403.43482114 435.69510237 C-403.42278537 439.79315359 -403.41564529 443.89106205 -403.42153358 447.98913002 C-403.42682867 451.74149085 -403.41835389 455.49356044 -403.39897721 459.24587264 C-403.39223664 461.24470416 -403.40022591 463.24356863 -403.40875494 465.24239331 C-403.33923401 474.61956407 -401.92134331 480.45502694 -395.546875 487.4921875 C-389.89653308 492.99984402 -384.05452936 493.14910099 -376.54656982 493.15821838 C-375.25512428 493.16562535 -375.25512428 493.16562535 -373.93758893 493.17318195 C-371.0479128 493.18856017 -368.1582589 493.19691848 -365.26855469 493.20532227 C-363.19902348 493.21490053 -361.12949423 493.22491058 -359.05996704 493.23532104 C-353.43642883 493.26238173 -347.81288221 493.28338503 -342.18931484 493.30332303 C-336.31428428 493.32517538 -330.43927966 493.35256775 -324.56427002 493.37937927 C-313.43672049 493.42931631 -302.30915657 493.4742514 -291.18157887 493.51740164 C-278.51423719 493.56676536 -265.84692153 493.6216867 -253.17960501 493.67708123 C-227.11976077 493.7909168 -201.05989129 493.89755529 -175 494 C-175 487.73 -175 481.46 -175 475 C-202.14653329 466.79006734 -227.31946862 461.4125971 -255.8125 462.25 C-256.63503265 462.27300171 -257.45756531 462.29600342 -258.30502319 462.31970215 C-294.07130664 463.359857 -329.35788125 467.78997032 -364.2421875 475.76464844 C-377.66333654 478.80821146 -377.66333654 478.80821146 -383 478 C-386.18606757 475.47132579 -387.80317728 473.96442874 -388.62674582 469.92895365 C-388.62755758 468.77009952 -388.62836934 467.61124539 -388.6292057 466.41727448 C-388.63647291 465.76635611 -388.64374011 465.11543775 -388.65122753 464.4447946 C-388.66949974 462.26001265 -388.6521148 460.0769815 -388.63491821 457.89221191 C-388.64067861 456.31165242 -388.64861918 454.73109962 -388.65855443 453.15056086 C-388.67946258 448.8045261 -388.66909477 444.45903901 -388.65362334 440.11300206 C-388.64232991 435.4271592 -388.65976255 430.74141179 -388.67352295 426.05558777 C-388.69578138 416.87498531 -388.69094257 407.69458699 -388.67645974 398.51397645 C-388.66517774 391.05416649 -388.6636321 383.59441382 -388.66907883 376.13459778 C-388.67022807 374.54333434 -388.67022807 374.54333434 -388.67140054 372.91992417 C-388.67299913 370.76498948 -388.6746202 368.6100548 -388.6762635 366.45512015 C-388.69052863 346.23797748 -388.67411627 326.02094809 -388.64726166 305.80382401 C-388.62492221 288.44842359 -388.62880212 271.09319037 -388.65185547 253.73779297 C-388.67859996 233.5940715 -388.68915526 213.45044937 -388.67379415 193.30671263 C-388.67220137 191.15960917 -388.67062952 189.01250571 -388.66907883 186.86540222 C-388.66792176 185.28068862 -388.66792176 185.28068862 -388.66674132 183.66396061 C-388.66242027 176.211237 -388.6697196 168.75857629 -388.68147659 161.30586243 C-388.69548512 152.22613157 -388.69173636 143.14661689 -388.66507287 134.06691086 C-388.65191248 129.43232581 -388.64682002 124.79810147 -388.66331863 120.16351891 C-388.67818542 115.92326794 -388.67008467 111.68371304 -388.64343087 107.44352549 C-388.63783193 105.907264 -388.640718 104.37094406 -388.65280981 102.83471996 C-388.66796481 100.74987982 -388.65248057 98.66743931 -388.6292057 96.58272552 C-388.62798806 94.84444433 -388.62798806 94.84444433 -388.62674582 93.07104635 C-387.8064316 89.05151738 -386.12776675 87.56618354 -383 85 C-380.28149414 83.88500977 -380.28149414 83.88500977 -377.28515625 83.19140625 C-376.14369141 82.92231445 -375.00222656 82.65322266 -373.82617188 82.37597656 C-372.58416016 82.1075293 -371.34214844 81.83908203 -370.0625 81.5625 C-369.41595459 81.41792358 -368.76940918 81.27334717 -368.10327148 81.12438965 C-340.7545545 75.01167423 -312.91417567 71.27080017 -285 69 C-283.9469165 68.9057373 -282.89383301 68.81147461 -281.80883789 68.71435547 C-271.97523091 67.902213 -262.15985789 67.77999907 -252.29858398 67.75976562 C-249.46633077 67.75009841 -246.63481741 67.71898125 -243.80273438 67.6875 C-226.96472519 67.58909302 -210.45568003 69.30586735 -194.1875 73.8125 C-193.23738037 74.06821777 -192.28726074 74.32393555 -191.30834961 74.58740234 C-182.99547493 76.88317221 -174.94996291 79.66461628 -167 83 C-165.67162109 83.556875 -165.67162109 83.556875 -164.31640625 84.125 C-159.43145893 86.35413817 -159.43145893 86.35413817 -157.82006848 88.76626945 C-156.81485566 91.50430249 -156.75167667 93.69643803 -156.75390434 96.61468887 C-156.74992225 97.76520682 -156.74594015 98.91572476 -156.74183738 100.10110688 C-156.74766307 101.36568656 -156.75348875 102.63026623 -156.75949097 103.9331665 C-156.75861898 105.28955406 -156.75686811 106.64594129 -156.75431263 108.00232673 C-156.74983383 111.73304856 -156.75785007 115.46365588 -156.76786876 119.19436312 C-156.77649329 123.2161436 -156.7735838 127.23791746 -156.77206421 131.25970459 C-156.77101473 138.22887964 -156.77729794 145.19801728 -156.78853989 152.16718292 C-156.80478334 162.24346255 -156.81000171 172.31972407 -156.81251587 182.39601538 C-156.81689479 198.7435127 -156.83020922 215.09099007 -156.84912109 231.43847656 C-156.8674748 247.31998596 -156.8816338 263.20148995 -156.89013672 279.08300781 C-156.89066217 280.06169147 -156.89118761 281.04037512 -156.89172898 282.04871586 C-156.89433903 286.95840866 -156.89686645 291.8681015 -156.89935279 296.77779436 C-156.92009141 337.51854345 -156.9553223 378.25927058 -157 419 C-156.18860062 418.54935181 -155.37720123 418.09870361 -154.54121399 417.63439941 C-151.46638811 415.92811933 -148.3904062 414.22395843 -145.31367493 412.52111816 C-143.99423205 411.79032703 -142.67522575 411.05874699 -141.35670471 410.32629395 C-129.91224883 403.96992861 -118.31309309 398.01142807 -106.55371094 392.25488281 C-103.59983998 390.80336305 -100.66079542 389.32405869 -97.72363281 387.83911133 C-94.49113741 386.20841072 -91.24631284 384.6029737 -88 383 C-87.26942383 382.6376123 -86.53884766 382.27522461 -85.78613281 381.90185547 C-65.57863694 371.92456245 -44.72891413 363.24520255 -23.6875 355.1875 C-22.82253906 354.8560498 -21.95757812 354.52459961 -21.06640625 354.18310547 C-15.26075879 352 -15.26075879 352 -13 352 C-13.495 189.145 -13.495 189.145 -14 23 C-37.64502009 33.09195511 -37.64502009 33.09195511 -60.875 44 C-61.65495331 44.38218689 -62.43490662 44.76437378 -63.23849487 45.15814209 C-76.02398668 51.42547971 -88.62595909 57.95001953 -101 65 C-102.16076946 65.65973453 -103.32157913 66.31939833 -104.48242188 66.97900391 C-110.58621909 70.44985255 -116.68164837 73.93491115 -122.76953125 77.43359375 C-123.8361499 78.04323975 -124.90276855 78.65288574 -126.00170898 79.28100586 C-127.90274265 80.37091532 -129.79876453 81.46965236 -131.68774414 82.58032227 C-132.47914795 83.03850342 -133.27055176 83.49668457 -134.0859375 83.96875 C-134.75802246 84.36384766 -135.43010742 84.75894531 -136.12255859 85.16601562 C-139.37888538 86.61251918 -141.71386771 86.09537743 -145 85 C-147.4375 83.4375 -147.4375 83.4375 -149 81 C-149.77403846 75.58173077 -149.77403846 75.58173077 -149 73 C-145.70001054 69.14099593 -142.10648622 66.62066924 -137.75 64.0625 C-136.79975952 63.50332886 -136.79975952 63.50332886 -135.83032227 62.93286133 C-126.33836994 57.38878134 -116.72281104 52.05564856 -107.10888672 46.72705078 C-104.28718732 45.15953849 -101.47291852 43.57956297 -98.66015625 41.99609375 C-17.8341519 -3.18466998 -17.8341519 -3.18466998 0 0 Z " fill="#000000" transform="translate(422,0)"/>
<path d="M0 0 C2.19140625 2.11328125 2.19140625 2.11328125 3.19140625 5.55078125 C3.19140625 9.53177065 2.70914985 11.07462518 0.19140625 14.11328125 C-2.92521733 16.1018607 -4.8358221 16.27454941 -8.44921875 15.6875 C-9.79608765 15.48217651 -9.79608765 15.48217651 -11.17016602 15.27270508 C-12.12334717 15.11697021 -13.07652832 14.96123535 -14.05859375 14.80078125 C-46.88760948 9.88194208 -80.59370058 11.91786364 -112.84985352 19.75219727 C-116.12393388 20.35575764 -118.6365834 20.04622547 -121.80859375 19.11328125 C-124.95534198 16.36996228 -125.70813508 14.73835739 -126.37109375 10.61328125 C-125.63437689 6.02926522 -124.4514553 4.97455017 -120.80859375 2.11328125 C-117.42260043 0.84998013 -113.97762794 0.1661521 -110.43359375 -0.51171875 C-109.42498291 -0.71700195 -108.41637207 -0.92228516 -107.37719727 -1.13378906 C-79.53525013 -6.61372287 -25.47435579 -17.11281481 0 0 Z " fill="#000000" transform="translate(210.80859375,159.88671875)"/>
<path d="M0 0 C0.77207794 0.00027191 1.54415588 0.00054382 2.33963013 0.00082397 C44.31740128 0.06879404 44.31740128 0.06879404 52.9375 8.1875 C54.00128903 10.83589143 54.18628035 13.35140399 53.9375 16.1875 C52.17285939 19.04743478 50.94184303 20.68532849 47.9375 22.1875 C42.23730102 22.50417772 37.05009992 21.80207284 31.453125 20.72265625 C3.3605499 16.44634204 -26.93874304 18.54715217 -54.53564453 24.91699219 C-59.65698837 26.07157333 -64.8133699 26.89909097 -70.0625 26.1875 C-73.125 24.125 -73.125 24.125 -75.0625 21.1875 C-75.71446073 17.13085548 -75.63150438 15.09653591 -73.44140625 11.59765625 C-70.49547168 8.61302303 -68.5113155 8.06276267 -64.4375 7.125 C-63.76235352 6.96926514 -63.08720703 6.81353027 -62.39160156 6.65307617 C-41.7897707 2.13033755 -21.06015901 -0.02787337 0 0 Z " fill="#000000" transform="translate(160.0625,306.8125)"/>
<path d="M0 0 C2.60409091 -0.00217875 5.20775155 -0.02037818 7.81176758 -0.03930664 C44.98548285 -0.16452772 44.98548285 -0.16452772 53.70043945 6.54077148 C55.85607233 9.40361515 56.18281767 12.70692094 55.9387207 16.18530273 C54.1740801 19.04523751 52.94306373 20.68313122 49.9387207 22.18530273 C45.35636936 22.41732052 41.21200961 21.9455272 36.73852539 21.11743164 C7.33919024 15.87812201 -24.57858773 18.37480525 -53.52246094 24.91479492 C-58.48917029 26.01505268 -62.96677473 26.51201553 -68.0612793 26.18530273 C-70.49247552 24.31515179 -71.70197102 22.90391928 -73.0612793 20.18530273 C-73.46537578 16.54843435 -73.41270769 14.7385082 -71.4284668 11.61499023 C-57.80290805 -2.37031924 -18.40247634 -0.00171617 0 0 Z " fill="#000000" transform="translate(158.061279296875,255.814697265625)"/>
<path d="M0 0 C0.81041748 0.11375977 1.62083496 0.22751953 2.45581055 0.34472656 C8.23025509 1.25561801 14.03511212 2.34418864 18.0625 6.875 C19.39538638 10.54043755 19.03407915 12.87748043 18.0625 16.625 C17 18.5 17 18.5 15.0625 19.625 C9.03938763 20.73209286 4.22169342 20.3981127 -1.75 19.25 C-31.30894015 14.15203652 -62.82377783 16.49880521 -91.92675781 23.35473633 C-96.01167824 24.30723426 -99.74090763 24.9891161 -103.9375 24.625 C-106.63740662 22.82506226 -108.4793865 21.541227 -109.9375 18.625 C-110.19569467 14.66601499 -110.14661075 11.96097613 -107.9375 8.625 C-100.17141872 4.24012572 -90.60631376 3.28550054 -81.9375 1.9375 C-80.6484375 1.72544922 -79.359375 1.51339844 -78.03125 1.29492188 C-52.27672767 -2.85354539 -25.8575388 -3.69702068 0 0 Z " fill="#000000" transform="translate(194.9375,206.375)"/>
<path d="M0 0 C2.51554827 2.41813524 2.49527719 4.35882377 2.75390625 7.71484375 C2.70351681 10.20912122 2.23850614 11.6676764 0.71484375 13.6484375 C-4.8782902 17.37719347 -11.66336378 15.84540657 -18.03515625 14.7109375 C-46.17713976 9.70712959 -77.01780285 11.87768525 -104.7199707 18.37792969 C-110.19001139 19.62468338 -115.67946268 20.3300075 -121.28515625 19.6484375 C-124.41015625 17.5859375 -124.41015625 17.5859375 -126.28515625 14.6484375 C-126.91015625 11.1484375 -126.91015625 11.1484375 -126.28515625 7.6484375 C-116.13211784 -4.70287345 -89.01467438 -4.08618031 -74.24584961 -5.67944336 C-18.37007162 -10.86503382 -18.37007162 -10.86503382 0 0 Z " fill="#000000" transform="translate(211.28515625,364.3515625)"/>
<path d="M0 0 C2.0625 1.5625 2.0625 1.5625 3 4 C3.86929734 10.84571653 3.86929734 10.84571653 1.10546875 14.515625 C-3.0257411 17.82059288 -7.21149714 19.1443354 -12.1875 20.8125 C-22.88121859 24.60356741 -33.0782372 29.12551549 -43.3125 34 C-44.40981445 34.5210582 -44.40981445 34.5210582 -45.52929688 35.05264282 C-52.42618952 38.3307896 -59.30305901 41.64670623 -66.1484375 45.03125 C-67.45687622 45.67126953 -67.45687622 45.67126953 -68.79174805 46.32421875 C-70.32039305 47.07444338 -71.84340902 47.83632578 -73.35864258 48.61328125 C-77.74187203 50.7655064 -81.13046819 51.52386161 -86 51 C-88.91963173 49.01216563 -90.61102978 47.5685303 -91.48046875 44.0625 C-91.7483304 40.24004186 -91.53775614 38.68793033 -89.09765625 35.56640625 C-85.26921705 32.01297524 -80.51479886 30.08612487 -75.8125 27.9375 C-74.80147217 27.46634766 -73.79044434 26.99519531 -72.7487793 26.50976562 C-70.59633569 25.50833757 -68.44173118 24.51154296 -66.28515625 23.51904297 C-63.07558591 22.03495062 -59.88038954 20.52350352 -56.6875 19.00390625 C-45.83801712 13.86862895 -34.89638847 8.95330503 -23.77450562 4.43676758 C-21.98642079 3.70745354 -20.20560046 2.96040796 -18.42504883 2.21289062 C-11.70577365 -0.45888324 -7.10885649 -1.65727943 0 0 Z " fill="#000000" transform="translate(381,248)"/>
<path d="M0 0 C2.93052231 1.99524923 4.64521503 3.42836485 5.4453125 6.97265625 C5.63315243 10.32246834 5.43304162 12.46526393 3.30126953 15.09765625 C0.79953685 17.1657128 -1.35859667 18.21132425 -4.3828125 19.375 C-5.454104 19.79644287 -6.52539551 20.21788574 -7.62915039 20.65209961 C-8.78278076 21.09690674 -9.93641113 21.54171387 -11.125 22 C-13.58671136 22.97567526 -16.04671613 23.95450873 -18.50390625 24.94140625 C-19.13052658 25.19281876 -19.75714691 25.44423126 -20.40275574 25.70326233 C-26.71235712 28.25418795 -32.89471418 31.06159221 -39.0625 33.9375 C-40.1155835 34.42629639 -41.16866699 34.91509277 -42.25366211 35.41870117 C-47.30525331 37.77395702 -52.34091637 40.15879691 -57.35725403 42.58830261 C-59.14420968 43.45134918 -60.93524805 44.30592569 -62.72631836 45.16040039 C-64.97914804 46.23572652 -67.22521971 47.32536572 -69.46313477 48.43139648 C-78.91920172 52.92368418 -78.91920172 52.92368418 -85 51 C-87.4375 49.4375 -87.4375 49.4375 -89 47 C-89.77403846 41.58173077 -89.77403846 41.58173077 -89 39 C-85.45766251 34.9497872 -81.71609659 32.52265473 -76.91015625 30.25 C-76.22135376 29.91469772 -75.53255127 29.57939545 -74.82287598 29.2339325 C-72.57476992 28.1444196 -70.31926937 27.07143945 -68.0625 26 C-66.49399122 25.24729343 -64.92555125 24.49444345 -63.35717773 23.74145508 C-53.17278104 18.87534031 -42.91304605 14.18902694 -32.5625 9.6875 C-31.36955322 9.16736328 -30.17660645 8.64722656 -28.94750977 8.11132812 C-7.00204801 -1.28609045 -7.00204801 -1.28609045 0 0 Z " fill="#000000" transform="translate(379,196)"/>
<path d="M0 0 C2.4375 1.5 2.4375 1.5 4 4 C4.60819448 7.12129997 4.87116045 9.92658923 4 13 C0.69592961 16.00671141 -2.38342925 17.77256224 -6.55859375 19.3046875 C-7.65187988 19.71605957 -8.74516602 20.12743164 -9.87158203 20.55126953 C-11.04833496 20.98810059 -12.22508789 21.42493164 -13.4375 21.875 C-24.02274497 25.91719443 -34.37246334 30.30027687 -44.625 35.125 C-45.25705353 35.42156494 -45.88910706 35.71812988 -46.54031372 36.02368164 C-52.61434785 38.88021172 -58.65549634 41.78973714 -64.609375 44.890625 C-65.42970215 45.31585449 -66.2500293 45.74108398 -67.09521484 46.17919922 C-68.54688139 46.94063237 -69.99097413 47.71681648 -71.42431641 48.51220703 C-76.27887453 51.08022488 -79.64143628 51.513294 -85 51 C-88 48.9375 -88 48.9375 -90 46 C-90.62152208 42.1327515 -90.59370255 40.00485391 -88.58984375 36.61328125 C-84.89222834 32.88220325 -80.70183705 30.95322478 -76 28.6875 C-74.96979736 28.18259033 -73.93959473 27.67768066 -72.87817383 27.1574707 C-53.83557473 17.93723718 -34.45165958 9.00541545 -14.6875 1.4375 C-13.97875732 1.15672607 -13.27001465 0.87595215 -12.53979492 0.58666992 C-8.01470179 -1.06070903 -4.67157766 -1.09885632 0 0 Z " fill="#000000" transform="translate(380,299)"/>
<path d="M0 0 C2.7149409 2.11897826 3.67792702 3.58629912 4.44140625 6.9375 C4.78316426 10.77682403 4.78316426 10.77682403 4 13 C-0.42845369 17.5188303 -4.90778613 19.35458631 -10.8125 21.375 C-20.61201077 24.92311404 -30.0881553 29.04990722 -39.5625 33.375 C-40.27458618 33.69927979 -40.98667236 34.02355957 -41.72033691 34.35766602 C-51.22707929 38.69634981 -60.66644397 43.1478372 -69.86352539 48.11865234 C-74.65829868 50.63553915 -78.55163075 51.82127043 -84 52 C-86.98715474 50.73966294 -87.83552167 49.65148596 -90 47 C-90.798268 44.14576119 -90.9544439 41.81534291 -90 39 C-85.64622111 33.23651737 -79.0411206 30.66661241 -72.6875 27.5625 C-72.08329224 27.26408203 -71.47908447 26.96566406 -70.85656738 26.65820312 C-60.77089412 21.6788584 -50.55059095 17.01586498 -40.25 12.5 C-39.60211517 12.21512726 -38.95423035 11.93025452 -38.28671265 11.63674927 C-31.04874733 8.46540289 -23.75825358 5.45444015 -16.375 2.63671875 C-15.71477844 2.38132324 -15.05455688 2.12592773 -14.37432861 1.86279297 C-9.22690253 -0.06751251 -5.42665924 -0.99488753 0 0 Z " fill="#000000" transform="translate(380,145)"/>
<path d="M0 0 C2.07192833 1.63495766 2.89389044 2.51985425 3.46875 5.12109375 C3.48421875 6.26771484 3.48421875 6.26771484 3.5 7.4375 C3.5309375 8.19933594 3.561875 8.96117188 3.59375 9.74609375 C2.71820372 13.06971351 0.75512441 14.02842329 -2 16 C-4.63354492 17.2734375 -4.63354492 17.2734375 -7.48046875 18.375 C-8.5487793 18.79652344 -9.61708984 19.21804687 -10.71777344 19.65234375 C-12.43528809 20.31943359 -12.43528809 20.31943359 -14.1875 21 C-30.28771252 27.40709455 -45.96616617 34.62471453 -61.56640625 42.16796875 C-63.14276855 42.92883789 -63.14276855 42.92883789 -64.75097656 43.70507812 C-66.7389851 44.66769279 -68.72419504 45.63611673 -70.70605469 46.61132812 C-72.03685059 47.25811523 -72.03685059 47.25811523 -73.39453125 47.91796875 C-74.16643799 48.29719482 -74.93834473 48.6764209 -75.73364258 49.06713867 C-79.25872207 50.5181059 -81.9172141 51.3093674 -85.625 50.25 C-89.65 48.13157895 -89.65 48.13157895 -91 46 C-91.77275314 39.15561506 -91.77275314 39.15561506 -89.38964844 35.59179688 C-86.66215588 32.63357651 -83.85620235 31.06691396 -80.26953125 29.3984375 C-79.61039734 29.0800441 -78.95126343 28.7616507 -78.27215576 28.43360901 C-76.12487106 27.40108922 -73.96929125 26.38749293 -71.8125 25.375 C-70.3166978 24.66277455 -68.82117602 23.94995988 -67.32592773 23.23657227 C-51.3433578 15.64188474 -35.22253299 8.34968421 -18.75 1.875 C-18.0288501 1.59132568 -17.3077002 1.30765137 -16.56469727 1.01538086 C-10.26016688 -1.40040229 -6.35829901 -2.76447783 0 0 Z " fill="#000000" transform="translate(381,95)"/>
</svg>
