<?xml version="1.0" encoding="UTF-8"?>
<svg version="1.1" xmlns="http://www.w3.org/2000/svg" width="512" height="512">
<path d="M0 0 C1.21883377 -0.00623996 2.43766754 -0.01247993 3.69343567 -0.01890898 C7.03695896 -0.03199398 10.3795684 -0.02743469 13.72303391 -0.0149641 C17.34411327 -0.00584578 20.96511761 -0.01991665 24.58618164 -0.03088379 C31.66414479 -0.04860186 38.74193757 -0.04485915 45.81990719 -0.03323323 C51.57607856 -0.0241726 57.33220244 -0.02298623 63.08837891 -0.02732849 C63.90992179 -0.02794142 64.73146467 -0.02855436 65.57790279 -0.02918586 C67.24723436 -0.03046486 68.91656591 -0.03176171 70.58589745 -0.03307623 C86.21226148 -0.04446236 101.8385314 -0.03139928 117.46487999 -0.00987476 C130.85163375 0.00799444 144.23824874 0.00488978 157.625 -0.0135498 C173.19825014 -0.03499136 188.77141795 -0.04336391 204.34468079 -0.03110075 C206.00761921 -0.02982665 207.67055765 -0.02856917 209.33349609 -0.02732849 C210.15153686 -0.02671139 210.96957762 -0.02609429 211.81240749 -0.02545848 C217.55676194 -0.02201543 223.30106385 -0.02781132 229.04541016 -0.0372467 C236.05290288 -0.04850467 243.06021654 -0.04534731 250.06768894 -0.02412373 C253.63800972 -0.01366404 257.20803275 -0.00940363 260.77835083 -0.02272034 C264.65969124 -0.03697737 268.5405519 -0.01987089 272.421875 0 C273.5346431 -0.00892289 274.64741119 -0.01784577 275.79389954 -0.02703905 C290.78212412 0.12102353 303.17905094 5.573485 314.0234375 15.82043457 C327.17586711 29.74791807 328.81067059 45.11178845 328.75683594 63.34313965 C328.76558569 65.3154837 328.77607633 67.28782067 328.78816223 69.26014709 C328.81587101 74.5774467 328.81943027 79.89451295 328.81844234 85.21187425 C328.8215845 90.78259313 328.84722973 96.35320892 328.87042236 101.9238739 C328.91088637 112.45614832 328.93130048 122.98836097 328.94439626 133.52070111 C328.96029888 145.51841117 328.99872822 157.51601661 329.03898954 169.5136658 C329.12125708 194.17838688 329.17543125 218.84310495 329.2109375 243.50793457 C330.44457787 244.11731117 330.44457787 244.11731117 331.70314026 244.73899841 C332.78280563 245.27497147 333.86247101 245.81094452 334.97485352 246.36315918 C336.57974388 247.15816078 336.57974388 247.15816078 338.21705627 247.96922302 C362.02135785 260.20349385 379.51679389 282.98305312 387.78125 308.12121582 C396.51466876 336.29828309 394.03747275 366.61786634 380.515625 392.78918457 C376.93910257 399.14031858 372.91064887 404.94300437 368.2109375 410.50793457 C367.53289062 411.32004395 366.85484375 412.13215332 366.15625 412.96887207 C349.18254153 432.60038543 325.7961393 444.75140832 300.2109375 448.50793457 C267.92862223 450.37672079 239.17294839 444.18727006 214.2109375 422.50793457 C203.10027101 412.52003017 192.00922974 399.9028113 187.2109375 385.50793457 C186.19217435 385.50646801 185.1734112 385.50500145 184.12377644 385.50349045 C159.30050567 385.46684644 134.47736931 385.40733259 109.65421009 385.32403183 C97.64976092 385.28427358 85.64537699 385.25186473 73.64086914 385.23693848 C63.17406417 385.22390534 52.70740296 385.19689815 42.24067897 385.1533215 C36.70194792 385.13074423 31.16339395 385.11502166 25.62461281 385.11605072 C20.40345319 385.11679953 15.18268447 385.09876003 9.96162605 385.06676674 C8.05299921 385.05829965 6.14432837 385.05649594 4.23569107 385.06213188 C-13.77828252 385.10820902 -28.07427638 381.97747789 -41.6015625 369.19543457 C-52.41863999 357.74092215 -56.42170208 344.27076216 -56.29699707 328.71887207 C-56.30323703 327.5000383 -56.309477 326.28120453 -56.31590605 325.0254364 C-56.32899105 321.68191311 -56.32443176 318.33930368 -56.31196117 314.99583817 C-56.30284285 311.3747588 -56.31691372 307.75375446 -56.32788086 304.13269043 C-56.34559893 297.05472728 -56.34185622 289.9769345 -56.3302303 282.89896488 C-56.32116967 277.14279351 -56.3199833 271.38666963 -56.32432556 265.63049316 C-56.32493849 264.80895028 -56.32555143 263.9874074 -56.32618293 263.14096928 C-56.32746193 261.47163771 -56.32875878 259.80230616 -56.3300733 258.13297462 C-56.34145943 242.5066106 -56.32839635 226.88034067 -56.30687183 211.25399208 C-56.28900263 197.86723832 -56.29210729 184.48062333 -56.31054688 171.09387207 C-56.33198843 155.52062193 -56.34036098 139.94745412 -56.32809782 124.37419128 C-56.32682372 122.71125286 -56.32556624 121.04831443 -56.32432556 119.38537598 C-56.32370846 118.56733521 -56.32309136 117.74929445 -56.32245556 116.90646458 C-56.3190125 111.16211013 -56.32480839 105.41780822 -56.33424377 99.67346191 C-56.34550174 92.66596919 -56.34234438 85.65865553 -56.3211208 78.65118313 C-56.31066111 75.08086235 -56.3064007 71.51083932 -56.31971741 67.94052124 C-56.33397444 64.05918083 -56.31686796 60.17832017 -56.29699707 56.29699707 C-56.30591996 55.18422897 -56.31484284 54.07146088 -56.32403612 52.92497253 C-56.17597354 37.93674795 -50.72351207 25.53982113 -40.4765625 14.69543457 C-29.02205008 3.87835708 -15.55189009 -0.12470501 0 0 Z " fill="#F1F1F1" transform="translate(87.7890625,31.4920654296875)"/>
<path d="M0 0 C1.21883377 -0.00623996 2.43766754 -0.01247993 3.69343567 -0.01890898 C7.03695896 -0.03199398 10.3795684 -0.02743469 13.72303391 -0.0149641 C17.34411327 -0.00584578 20.96511761 -0.01991665 24.58618164 -0.03088379 C31.66414479 -0.04860186 38.74193757 -0.04485915 45.81990719 -0.03323323 C51.57607856 -0.0241726 57.33220244 -0.02298623 63.08837891 -0.02732849 C63.90992179 -0.02794142 64.73146467 -0.02855436 65.57790279 -0.02918586 C67.24723436 -0.03046486 68.91656591 -0.03176171 70.58589745 -0.03307623 C86.21226148 -0.04446236 101.8385314 -0.03139928 117.46487999 -0.00987476 C130.85163375 0.00799444 144.23824874 0.00488978 157.625 -0.0135498 C173.19825014 -0.03499136 188.77141795 -0.04336391 204.34468079 -0.03110075 C206.00761921 -0.02982665 207.67055765 -0.02856917 209.33349609 -0.02732849 C210.15153686 -0.02671139 210.96957762 -0.02609429 211.81240749 -0.02545848 C217.55676194 -0.02201543 223.30106385 -0.02781132 229.04541016 -0.0372467 C236.05290288 -0.04850467 243.06021654 -0.04534731 250.06768894 -0.02412373 C253.63800972 -0.01366404 257.20803275 -0.00940363 260.77835083 -0.02272034 C264.65969124 -0.03697737 268.5405519 -0.01987089 272.421875 0 C273.5346431 -0.00892289 274.64741119 -0.01784577 275.79389954 -0.02703905 C290.78212412 0.12102353 303.17905094 5.573485 314.0234375 15.82043457 C327.17586711 29.74791807 328.81067059 45.11178845 328.75683594 63.34313965 C328.76558569 65.3154837 328.77607633 67.28782067 328.78816223 69.26014709 C328.81587101 74.5774467 328.81943027 79.89451295 328.81844234 85.21187425 C328.8215845 90.78259313 328.84722973 96.35320892 328.87042236 101.9238739 C328.91088637 112.45614832 328.93130048 122.98836097 328.94439626 133.52070111 C328.96029888 145.51841117 328.99872822 157.51601661 329.03898954 169.5136658 C329.12125708 194.17838688 329.17543125 218.84310495 329.2109375 243.50793457 C330.44457787 244.11731117 330.44457787 244.11731117 331.70314026 244.73899841 C332.78280563 245.27497147 333.86247101 245.81094452 334.97485352 246.36315918 C336.57974388 247.15816078 336.57974388 247.15816078 338.21705627 247.96922302 C362.02135785 260.20349385 379.51679389 282.98305312 387.78125 308.12121582 C396.51466876 336.29828309 394.03747275 366.61786634 380.515625 392.78918457 C376.93910257 399.14031858 372.91064887 404.94300437 368.2109375 410.50793457 C367.53289062 411.32004395 366.85484375 412.13215332 366.15625 412.96887207 C349.18254153 432.60038543 325.7961393 444.75140832 300.2109375 448.50793457 C267.92862223 450.37672079 239.17294839 444.18727006 214.2109375 422.50793457 C203.10027101 412.52003017 192.00922974 399.9028113 187.2109375 385.50793457 C186.19217435 385.50646801 185.1734112 385.50500145 184.12377644 385.50349045 C159.30050567 385.46684644 134.47736931 385.40733259 109.65421009 385.32403183 C97.64976092 385.28427358 85.64537699 385.25186473 73.64086914 385.23693848 C63.17406417 385.22390534 52.70740296 385.19689815 42.24067897 385.1533215 C36.70194792 385.13074423 31.16339395 385.11502166 25.62461281 385.11605072 C20.40345319 385.11679953 15.18268447 385.09876003 9.96162605 385.06676674 C8.05299921 385.05829965 6.14432837 385.05649594 4.23569107 385.06213188 C-13.77828252 385.10820902 -28.07427638 381.97747789 -41.6015625 369.19543457 C-52.41863999 357.74092215 -56.42170208 344.27076216 -56.29699707 328.71887207 C-56.30323703 327.5000383 -56.309477 326.28120453 -56.31590605 325.0254364 C-56.32899105 321.68191311 -56.32443176 318.33930368 -56.31196117 314.99583817 C-56.30284285 311.3747588 -56.31691372 307.75375446 -56.32788086 304.13269043 C-56.34559893 297.05472728 -56.34185622 289.9769345 -56.3302303 282.89896488 C-56.32116967 277.14279351 -56.3199833 271.38666963 -56.32432556 265.63049316 C-56.32493849 264.80895028 -56.32555143 263.9874074 -56.32618293 263.14096928 C-56.32746193 261.47163771 -56.32875878 259.80230616 -56.3300733 258.13297462 C-56.34145943 242.5066106 -56.32839635 226.88034067 -56.30687183 211.25399208 C-56.28900263 197.86723832 -56.29210729 184.48062333 -56.31054688 171.09387207 C-56.33198843 155.52062193 -56.34036098 139.94745412 -56.32809782 124.37419128 C-56.32682372 122.71125286 -56.32556624 121.04831443 -56.32432556 119.38537598 C-56.32370846 118.56733521 -56.32309136 117.74929445 -56.32245556 116.90646458 C-56.3190125 111.16211013 -56.32480839 105.41780822 -56.33424377 99.67346191 C-56.34550174 92.66596919 -56.34234438 85.65865553 -56.3211208 78.65118313 C-56.31066111 75.08086235 -56.3064007 71.51083932 -56.31971741 67.94052124 C-56.33397444 64.05918083 -56.31686796 60.17832017 -56.29699707 56.29699707 C-56.30591996 55.18422897 -56.31484284 54.07146088 -56.32403612 52.92497253 C-56.17597354 37.93674795 -50.72351207 25.53982113 -40.4765625 14.69543457 C-29.02205008 3.87835708 -15.55189009 -0.12470501 0 0 Z M-27.5390625 33.38293457 C-32.0820506 39.69264026 -34.90919154 45.61249572 -34.92049026 53.45717144 C-34.92433141 54.45931987 -34.92817255 55.46146831 -34.9321301 56.49398488 C-34.93126362 57.5928966 -34.93039713 58.69180831 -34.92950439 59.82402039 C-34.93247552 60.99306752 -34.93544664 62.16211465 -34.9385078 63.36658746 C-34.94568731 66.6124347 -34.94836706 69.8582497 -34.94910526 73.10410368 C-34.95095681 76.60458508 -34.95850471 80.10505502 -34.96524048 83.60552979 C-34.97882077 91.26061017 -34.98484816 98.91568532 -34.98925114 106.57077575 C-34.9920143 111.35159589 -34.99625182 116.13241402 -35.00075531 120.9132328 C-35.01294802 134.1523574 -35.02324704 147.39148038 -35.0266304 160.63061047 C-35.02684997 161.47791035 -35.02706953 162.32521024 -35.02729575 163.19818588 C-35.02751403 164.04750442 -35.02773231 164.89682296 -35.0279572 165.77187842 C-35.02840067 167.49289779 -35.02884723 169.21391716 -35.02929688 170.93493652 C-35.0295183 171.78862016 -35.02973973 172.6423038 -35.02996787 173.52185664 C-35.03391482 187.35067997 -35.05136567 201.17945057 -35.0746564 215.00825354 C-35.09838077 229.20929157 -35.11083276 243.41030316 -35.11199832 257.61136132 C-35.11291452 265.58340184 -35.11865279 273.55537367 -35.13681793 281.52739525 C-35.15223364 288.31669043 -35.15733076 295.10589569 -35.14907983 301.89520504 C-35.14517839 305.35759617 -35.14607792 308.81980631 -35.16013718 312.28217506 C-35.17282828 316.04058257 -35.16699461 319.79852629 -35.15655518 323.55693054 C-35.16461158 324.64468865 -35.17266798 325.73244676 -35.18096852 326.85316724 C-35.11392267 337.18180081 -32.48002279 345.52388982 -25.7890625 353.50793457 C-18.07154134 360.57847791 -10.50231766 363.66992318 -0.13287354 363.62818909 C1.02994011 363.62947072 1.02994011 363.62947072 2.21624494 363.63077825 C4.81573622 363.63242634 7.41516309 363.62692265 10.01464844 363.62145996 C11.87728372 363.62117792 13.73991911 363.62133616 15.60255432 363.62190247 C20.66208316 363.62218977 25.72158837 363.61630375 30.78111172 363.60932851 C36.0675539 363.60308394 41.3539966 363.6024903 46.64044189 363.6013031 C56.65240787 363.59819305 66.66436295 363.58998403 76.67632413 363.57995361 C88.07402202 363.56878238 99.47172043 363.56327947 110.86942244 363.55825818 C134.31660017 363.54780117 157.76376822 363.53020801 181.2109375 363.50793457 C181.1408035 362.82485513 181.0706695 362.14177568 180.99841022 361.43799686 C180.90719489 360.54004619 180.81597956 359.64209551 180.72200012 358.7169342 C180.63124112 357.82760476 180.54048212 356.93827532 180.44697285 356.0219965 C178.96396355 340.2261538 179.48177515 324.67605059 184.2109375 309.50793457 C184.75810676 307.68679885 185.30362426 305.8651662 185.84765625 304.04309082 C186.30188308 302.53131189 186.75623918 301.01957176 187.2109375 299.50793457 C186.26774658 299.49335205 185.32455566 299.47876953 184.3527832 299.46374512 C180.83935089 299.40253851 177.32668304 299.32835949 173.8137207 299.2454834 C172.29592129 299.21231541 170.77800094 299.18425825 169.26000977 299.16149902 C167.07255731 299.12780179 164.88620486 299.07548253 162.69921875 299.01965332 C161.38477783 298.99346924 160.07033691 298.96728516 158.71606445 298.94030762 C155.02918873 298.48551505 153.1351963 297.75234871 150.2109375 295.50793457 C147.75165006 291.81900341 147.51788171 288.79152036 148.2109375 284.50793457 C150.3354202 281.06480743 151.35946391 279.7917591 155.2109375 278.50793457 C156.68833102 278.44250954 158.16863077 278.43381922 159.6472168 278.46130371 C160.54212326 278.47363541 161.43702972 278.4859671 162.35905457 278.49867249 C163.32466812 278.51333054 164.29028168 278.52798859 165.28515625 278.54309082 C167.33528017 278.54912251 169.38541416 278.55228617 171.43554688 278.55285645 C174.66475616 278.55457268 177.89028418 278.57027201 181.11889648 278.63464355 C193.28150653 279.3616056 193.28150653 279.3616056 204.29125977 275.36877441 C206.29259543 272.83691076 207.76354885 270.38367103 209.2109375 267.50793457 C224.93646406 250.80113515 250.01125464 237.37889389 273.21191406 236.37854004 C274.24799805 236.37741211 275.28408203 236.37628418 276.3515625 236.37512207 C277.50527344 236.37383301 278.65898437 236.37254395 279.84765625 236.37121582 C281.63623047 236.3770166 281.63623047 236.3770166 283.4609375 236.38293457 C284.63785156 236.37906738 285.81476563 236.3752002 287.02734375 236.37121582 C288.76564453 236.37314941 288.76564453 236.37314941 290.5390625 236.37512207 C292.09995605 236.37681396 292.09995605 236.37681396 293.69238281 236.37854004 C296.63533345 236.48676678 299.50394285 236.71481783 302.43084717 237.01602173 C303.32722271 237.10766665 304.22359825 237.19931156 305.14713669 237.2937336 C305.82819096 237.36441992 306.50924522 237.43510624 307.2109375 237.50793457 C307.28105441 213.02085282 307.33393887 188.53378614 307.36637402 164.04662418 C307.38183528 152.67651575 307.40291071 141.30646974 307.43725586 129.93640137 C307.4671808 120.02492033 307.48651789 110.11348451 307.49320298 100.20195955 C307.49710998 94.95509426 307.50627667 89.7083583 307.52812767 84.4615345 C307.54854165 79.51956716 307.55476135 74.57778202 307.55026054 69.63577652 C307.55108355 67.82541983 307.55701984 66.01505684 307.56855392 64.20473671 C307.64902081 50.91966614 306.94308707 40.52299546 297.2109375 30.50793457 C288.11717543 22.89107912 278.91421475 21.05526566 267.2935791 21.12698364 C265.53360021 21.11996368 265.53360021 21.11996368 263.7380662 21.11280191 C260.50340748 21.10294994 257.26909013 21.10643636 254.03444028 21.11576056 C250.53744324 21.12257389 247.04049085 21.11205856 243.54350281 21.1038208 C236.70164383 21.09050553 229.85988378 21.09335133 223.01802099 21.10205872 C217.45575677 21.10884357 211.89352022 21.10974853 206.33125305 21.10648727 C205.53854229 21.10602758 204.74583153 21.10556788 203.92909923 21.10509425 C202.31854561 21.10413504 200.707992 21.1031624 199.0974384 21.10217647 C184.00773314 21.09362904 168.91808264 21.10344654 153.82838637 21.11957757 C140.89060908 21.13298017 127.95291255 21.13065189 115.01513672 21.11682129 C99.97813065 21.10075403 84.94117252 21.09445296 69.90415907 21.10365808 C68.2996467 21.10461369 66.69513433 21.10555681 65.09062195 21.10648727 C64.3012436 21.1069501 63.51186525 21.10741293 62.69856635 21.10788978 C57.14524933 21.11047623 51.59196281 21.10611611 46.03865051 21.09904861 C39.26776196 21.09062068 32.4969777 21.09294088 25.72610104 21.10889085 C22.27381091 21.11675622 18.82169445 21.11989497 15.36940575 21.10994339 C11.62219623 21.10173874 7.8754744 21.11203742 4.1282959 21.12698364 C3.04394839 21.12029148 1.95960088 21.11359931 0.84239435 21.10670435 C-11.13406718 21.19927862 -19.27672557 24.74503687 -27.5390625 33.38293457 Z " fill="#242425" transform="translate(87.7890625,31.4920654296875)"/>
<path d="M0 0 C2.49744229 1.9416091 4.88682811 3.9522794 7.25 6.0546875 C7.93578125 6.65796875 8.6215625 7.26125 9.328125 7.8828125 C18.8523251 16.80706299 25.4871372 27.99552425 30.25 40.0546875 C30.66378906 41.01503906 31.07757813 41.97539062 31.50390625 42.96484375 C34.57489049 51.42877592 34.63471851 59.74950934 34.6875 68.6796875 C34.69765137 69.906875 34.70780273 71.1340625 34.71826172 72.3984375 C34.50493223 94.75296413 25.14508717 114.34533447 9.9375 130.45703125 C-8.81128389 148.57903894 -30.82210001 154.74285081 -56.31626892 154.46426392 C-65.83669811 154.28109075 -74.07210608 152.95434905 -82.75 149.0546875 C-83.72428955 148.6205957 -83.72428955 148.6205957 -84.71826172 148.17773438 C-93.73173728 144.02479039 -101.39203288 138.74699039 -108.75 132.0546875 C-109.45511719 131.44238281 -110.16023438 130.83007812 -110.88671875 130.19921875 C-125.79582131 116.46175489 -134.95967713 94.54186478 -136.203125 74.5 C-136.93746454 51.975697 -130.37712734 30.83556896 -115.25 13.8046875 C-113.75604962 12.2156448 -112.25653759 10.63180162 -110.75 9.0546875 C-110.20988281 8.43980469 -109.66976563 7.82492187 -109.11328125 7.19140625 C-97.91140534 -5.08268952 -81.62618071 -11.53504437 -65.75 -14.9453125 C-64.97527344 -15.13222656 -64.20054687 -15.31914062 -63.40234375 -15.51171875 C-41.54597945 -19.08470319 -17.89147123 -12.65618278 0 0 Z " fill="#54BFEA" transform="translate(423.75,303.9453125)"/>
<path d="M0 0 C3.12335325 1.25061096 3.79559363 2.17383799 6 5 C7.11728729 8.62797311 6.95347557 11.34286819 6 15 C4.31694031 17.32191467 4.31694031 17.32191467 2.11206055 19.64868164 C1.29458344 20.51800323 0.47710632 21.38732483 -0.36514282 22.2829895 C-1.66939713 23.6279097 -1.66939713 23.6279097 -3 25 C-3.839935 25.87059052 -4.67987 26.74118103 -5.54525757 27.63815308 C-8.25657162 30.42051897 -10.98886067 33.18115971 -13.73046875 35.93359375 C-14.22222406 36.42817644 -14.71397938 36.92275913 -15.22063637 37.43232918 C-17.81200082 40.03851392 -20.40609057 42.64194673 -23.00268555 45.24291992 C-25.6689278 47.91469104 -28.32572538 50.59565748 -30.98055553 53.27876186 C-33.04221278 55.35907026 -35.11057444 57.43261359 -37.18081093 59.50438118 C-38.16363838 60.49021875 -39.14398431 61.4785372 -40.12169456 62.46945 C-41.48698268 63.85188594 -42.86281033 65.22388867 -44.23901367 66.59545898 C-45.40408699 67.76600075 -45.40408699 67.76600075 -46.59269714 68.96018982 C-50.03373319 71.87592613 -53.46869448 73.66710749 -57.875 74.625 C-61.30748986 73.93850203 -62.20602888 73.18768709 -64.73852539 70.89404297 C-65.44357208 70.25770935 -66.14861877 69.62137573 -66.87503052 68.96575928 C-72.12282241 64.11115045 -77.26588398 59.15840262 -82.3659668 54.14892578 C-83.75163465 52.79510298 -85.14528941 51.44940891 -86.54663086 50.11181641 C-88.59107151 48.15875407 -90.60794546 46.18055427 -92.62109375 44.1953125 C-93.24704941 43.60751007 -93.87300507 43.01970764 -94.51792908 42.41409302 C-98.39652976 38.51778773 -99.76452772 35.54504608 -100.2313385 30.05758667 C-99.80472111 26.26313716 -97.73585039 24.54497711 -95 22 C-91.93570224 20.46785112 -89.3834358 20.77061452 -86 21 C-81.81403594 23.07563155 -78.71556701 26.0191536 -75.48046875 29.32421875 C-74.97703445 29.83048294 -74.47360016 30.33674713 -73.95491028 30.85835266 C-72.36098252 32.46340218 -70.77418293 34.07529144 -69.1875 35.6875 C-68.10267836 36.78236179 -67.01739645 37.87676774 -65.93164062 38.97070312 C-63.28240652 41.64189128 -60.63953923 44.31923284 -58 47 C-52.3120494 42.27488809 -47.09058567 37.20652103 -41.890625 31.953125 C-40.61768585 30.67450592 -40.61768585 30.67450592 -39.31903076 29.37005615 C-36.62691038 26.66578761 -33.93806396 23.95830032 -31.25 21.25 C-27.69556703 17.66901783 -24.13787001 14.09132577 -20.578125 10.515625 C-19.76249084 9.6916925 -18.94685669 8.86776001 -18.10650635 8.01885986 C-17.34851746 7.25756775 -16.59052856 6.49627563 -15.80957031 5.71191406 C-14.811987 4.70647552 -14.811987 4.70647552 -13.79425049 3.6807251 C-9.3856931 -0.44889509 -5.79862764 -0.91712988 0 0 Z " fill="#FBFDFE" transform="translate(420,342)"/>
<path d="M0 0 C0.84528259 -0.0071553 1.69056519 -0.01431061 2.5614624 -0.02168274 C3.4856749 -0.02437164 4.40988739 -0.02706055 5.36210632 -0.02983093 C6.33801727 -0.03640213 7.31392822 -0.04297333 8.31941223 -0.04974365 C11.55328954 -0.06947605 14.78712043 -0.08113852 18.02104187 -0.09111023 C19.12509054 -0.09518576 20.22913921 -0.09926128 21.36664391 -0.10346031 C27.20904224 -0.12431977 33.05141708 -0.13862263 38.8938446 -0.147995 C44.92993401 -0.15906536 50.96565537 -0.19347317 57.00161457 -0.23316669 C61.6418934 -0.25930139 66.28208408 -0.267684 70.92243004 -0.27127647 C73.14757463 -0.27614974 75.37271509 -0.28778467 77.59778786 -0.30631447 C80.71223331 -0.33064065 83.82572011 -0.32975264 86.94023132 -0.32279968 C87.85837112 -0.33560974 88.77651093 -0.3484198 89.72247314 -0.36161804 C95.2526031 -0.31663934 98.49284313 0.39884297 102.84526062 4.14717102 C105.3483044 7.90173669 105.29806136 9.69463036 104.84526062 14.14717102 C102.72042179 18.16918737 101.06176375 20.46546289 96.84526062 22.14717102 C94.78968143 22.40164661 94.78968143 22.40164661 92.5635376 22.40786743 C91.71543518 22.41495224 90.86733276 22.42203705 89.99353027 22.42933655 C88.61024788 22.42562042 88.61024788 22.42562042 87.19902039 22.42182922 C86.22135712 22.42694016 85.24369385 22.43205109 84.23640442 22.43731689 C81.00309638 22.45122237 77.77000126 22.45025542 74.53666687 22.44795227 C72.28991618 22.4518386 70.04316623 22.45617313 67.79641724 22.4609375 C63.08635578 22.46840172 58.37636928 22.46810689 53.66630554 22.46284485 C47.62907227 22.4570492 41.59214567 22.47398275 35.55496311 22.49718952 C30.91471562 22.51191763 26.27454216 22.51279982 21.63427544 22.50967979 C19.40832347 22.51019344 17.1823674 22.51543933 14.95643806 22.52549171 C11.84438744 22.53782101 8.73293633 22.53108527 5.62089539 22.51948547 C4.24064934 22.53095108 4.24064934 22.53095108 2.83251953 22.54264832 C-3.09360169 22.49379818 -6.52499646 21.59555236 -10.96723938 17.45967102 C-12.7254062 14.03587248 -12.93039744 10.85467424 -12.15473938 7.14717102 C-9.25135605 1.97447658 -5.83613631 0.03396746 0 0 Z " fill="#455D6F" transform="translate(247.1547393798828,212.8528289794922)"/>
<path d="M0 0 C0.84528259 -0.0071553 1.69056519 -0.01431061 2.5614624 -0.02168274 C3.4856749 -0.02437164 4.40988739 -0.02706055 5.36210632 -0.02983093 C6.33801727 -0.03640213 7.31392822 -0.04297333 8.31941223 -0.04974365 C11.55328954 -0.06947605 14.78712043 -0.08113852 18.02104187 -0.09111023 C19.12509054 -0.09518576 20.22913921 -0.09926128 21.36664391 -0.10346031 C27.20904224 -0.12431977 33.05141708 -0.13862263 38.8938446 -0.147995 C44.92993401 -0.15906536 50.96565537 -0.19347317 57.00161457 -0.23316669 C61.6418934 -0.25930139 66.28208408 -0.267684 70.92243004 -0.27127647 C73.14757463 -0.27614974 75.37271509 -0.28778467 77.59778786 -0.30631447 C80.71223331 -0.33064065 83.82572011 -0.32975264 86.94023132 -0.32279968 C87.85837112 -0.33560974 88.77651093 -0.3484198 89.72247314 -0.36161804 C95.2526031 -0.31663934 98.49284313 0.39884297 102.84526062 4.14717102 C105.3483044 7.90173669 105.29806136 9.69463036 104.84526062 14.14717102 C102.72042179 18.16918737 101.06176375 20.46546289 96.84526062 22.14717102 C94.78968143 22.40164661 94.78968143 22.40164661 92.5635376 22.40786743 C91.71543518 22.41495224 90.86733276 22.42203705 89.99353027 22.42933655 C88.61024788 22.42562042 88.61024788 22.42562042 87.19902039 22.42182922 C86.22135712 22.42694016 85.24369385 22.43205109 84.23640442 22.43731689 C81.00309638 22.45122237 77.77000126 22.45025542 74.53666687 22.44795227 C72.28991618 22.4518386 70.04316623 22.45617313 67.79641724 22.4609375 C63.08635578 22.46840172 58.37636928 22.46810689 53.66630554 22.46284485 C47.62907227 22.4570492 41.59214567 22.47398275 35.55496311 22.49718952 C30.91471562 22.51191763 26.27454216 22.51279982 21.63427544 22.50967979 C19.40832347 22.51019344 17.1823674 22.51543933 14.95643806 22.52549171 C11.84438744 22.53782101 8.73293633 22.53108527 5.62089539 22.51948547 C4.24064934 22.53095108 4.24064934 22.53095108 2.83251953 22.54264832 C-3.09360169 22.49379818 -6.52499646 21.59555236 -10.96723938 17.45967102 C-12.7254062 14.03587248 -12.93039744 10.85467424 -12.15473938 7.14717102 C-9.25135605 1.97447658 -5.83613631 0.03396746 0 0 Z " fill="#455D6F" transform="translate(247.1547393798828,116.85282897949219)"/>
<path d="M0 0 C2.97672584 1.77280561 5.42804007 3.85608015 7 7 C7.3868125 12.12526565 7.00770604 14.84949125 4 19 C1.96805041 20.77333782 -0.03223337 22.39491242 -2.1875 24 C-3.45289852 24.96734461 -4.71717776 25.9361547 -5.98046875 26.90625 C-6.63966309 27.41027344 -7.29885742 27.91429687 -7.97802734 28.43359375 C-11.36901149 31.06056239 -14.68145476 33.7825178 -18 36.5 C-24.15079673 41.51787207 -30.3388746 46.48112978 -36.61328125 51.34375 C-38.94283786 53.1530098 -41.22117052 55.01008722 -43.48046875 56.90625 C-44.05063721 57.37329346 -44.62080566 57.84033691 -45.20825195 58.3215332 C-46.77099919 59.60226717 -48.31963588 60.90016433 -49.8671875 62.19921875 C-54.09259934 64.62804027 -56.17293019 64.60459291 -61 64 C-63.40625 62.59375 -63.40625 62.59375 -65.5 60.5 C-66.325 59.69175781 -67.15 58.88351562 -68 58.05078125 C-68.46148437 57.57979004 -68.92296875 57.10879883 -69.3984375 56.62353516 C-71.28120052 54.71494155 -73.20216843 52.84867443 -75.125 50.98046875 C-76.58464913 49.55082134 -78.04297898 48.11982575 -79.5 46.6875 C-80.20705078 45.99398437 -80.91410156 45.30046875 -81.64257812 44.5859375 C-82.30708984 43.92207031 -82.97160156 43.25820313 -83.65625 42.57421875 C-84.25244141 41.98213623 -84.84863281 41.39005371 -85.46289062 40.7800293 C-87.89319778 37.96564405 -88.91883786 35.7629241 -89.3125 32.0625 C-88.95575962 28.56644429 -88.09609412 26.79479215 -86 24 C-82.46715184 21.64476789 -80.54645572 21.39268047 -76.39453125 21.5 C-71.81297016 22.45667181 -69.13883194 25.71849389 -66 29 C-65.175 29.8146875 -64.35 30.629375 -63.5 31.46875 C-61.31383291 33.62759 -59.14998633 35.80522229 -57 38 C-54.121582 36.6685435 -51.80803749 35.16701678 -49.3828125 33.12890625 C-48.70057617 32.56010742 -48.01833984 31.99130859 -47.31542969 31.40527344 C-46.59258789 30.7971582 -45.86974609 30.18904297 -45.125 29.5625 C-37.52164278 23.23341214 -29.81832929 17.06054702 -22 11 C-21.39542969 10.52981445 -20.79085937 10.05962891 -20.16796875 9.57519531 C-18.3638336 8.17271762 -16.55746173 6.77318707 -14.75 5.375 C-14.20053711 4.94864258 -13.65107422 4.52228516 -13.08496094 4.08300781 C-8.43214519 0.49960115 -6.00734249 -0.60073425 0 0 Z " fill="#FE715A" transform="translate(185,288)"/>
<path d="M0 0 C2.97672584 1.77280561 5.42804007 3.85608015 7 7 C7.3868125 12.12526565 7.00770604 14.84949125 4 19 C1.96805041 20.77333782 -0.03223337 22.39491242 -2.1875 24 C-3.45289852 24.96734461 -4.71717776 25.9361547 -5.98046875 26.90625 C-6.63966309 27.41027344 -7.29885742 27.91429687 -7.97802734 28.43359375 C-11.36901149 31.06056239 -14.68145476 33.7825178 -18 36.5 C-24.15079673 41.51787207 -30.3388746 46.48112978 -36.61328125 51.34375 C-38.94283786 53.1530098 -41.22117052 55.01008722 -43.48046875 56.90625 C-44.05063721 57.37329346 -44.62080566 57.84033691 -45.20825195 58.3215332 C-46.77099919 59.60226717 -48.31963588 60.90016433 -49.8671875 62.19921875 C-54.09259934 64.62804027 -56.17293019 64.60459291 -61 64 C-63.40625 62.59375 -63.40625 62.59375 -65.5 60.5 C-66.325 59.69175781 -67.15 58.88351563 -68 58.05078125 C-68.46148437 57.57979004 -68.92296875 57.10879883 -69.3984375 56.62353516 C-71.28120052 54.71494155 -73.20216843 52.84867443 -75.125 50.98046875 C-76.58464913 49.55082134 -78.04297898 48.11982575 -79.5 46.6875 C-80.20705078 45.99398437 -80.91410156 45.30046875 -81.64257812 44.5859375 C-82.30708984 43.92207031 -82.97160156 43.25820312 -83.65625 42.57421875 C-84.25244141 41.98213623 -84.84863281 41.39005371 -85.46289062 40.7800293 C-87.89319778 37.96564405 -88.91883786 35.7629241 -89.3125 32.0625 C-88.95575962 28.56644429 -88.09609412 26.79479215 -86 24 C-82.46715184 21.64476789 -80.54645572 21.39268047 -76.39453125 21.5 C-71.81297016 22.45667181 -69.13883194 25.71849389 -66 29 C-65.175 29.8146875 -64.35 30.629375 -63.5 31.46875 C-61.31383291 33.62759 -59.14998633 35.80522229 -57 38 C-54.121582 36.6685435 -51.80803749 35.16701678 -49.3828125 33.12890625 C-48.70057617 32.56010742 -48.01833984 31.99130859 -47.31542969 31.40527344 C-46.59258789 30.7971582 -45.86974609 30.18904297 -45.125 29.5625 C-37.52164278 23.23341214 -29.81832929 17.06054702 -22 11 C-21.39542969 10.52981445 -20.79085937 10.05962891 -20.16796875 9.57519531 C-18.3638336 8.17271762 -16.55746173 6.77318707 -14.75 5.375 C-14.20053711 4.94864258 -13.65107422 4.52228516 -13.08496094 4.08300781 C-8.43214519 0.49960115 -6.00734249 -0.60073425 0 0 Z " fill="#FED15E" transform="translate(185,192)"/>
<path d="M0 0 C2.6258382 1.78870171 3.34201385 3.11189509 5 6 C5.72034239 11.13243953 4.96774731 13.84515377 2 18 C-0.03194959 19.77333782 -2.03223337 21.39491242 -4.1875 23 C-5.45289852 23.96734461 -6.71717776 24.9361547 -7.98046875 25.90625 C-8.63966309 26.41027344 -9.29885742 26.91429688 -9.97802734 27.43359375 C-13.36901149 30.06056239 -16.68145476 32.7825178 -20 35.5 C-26.15079673 40.51787207 -32.3388746 45.48112978 -38.61328125 50.34375 C-40.94283786 52.1530098 -43.22117052 54.01008722 -45.48046875 55.90625 C-46.05063721 56.37329346 -46.62080566 56.84033691 -47.20825195 57.3215332 C-48.77099919 58.60226717 -50.31963588 59.90016433 -51.8671875 61.19921875 C-56.09259934 63.62804027 -58.17293019 63.60459291 -63 63 C-65.40625 61.59375 -65.40625 61.59375 -67.5 59.5 C-68.325 58.69175781 -69.15 57.88351563 -70 57.05078125 C-70.46148437 56.57979004 -70.92296875 56.10879883 -71.3984375 55.62353516 C-73.28120052 53.71494155 -75.20216843 51.84867443 -77.125 49.98046875 C-78.58464913 48.55082134 -80.04297898 47.11982575 -81.5 45.6875 C-82.20705078 44.99398437 -82.91410156 44.30046875 -83.64257812 43.5859375 C-84.30708984 42.92207031 -84.97160156 42.25820312 -85.65625 41.57421875 C-86.25244141 40.98213623 -86.84863281 40.39005371 -87.46289062 39.7800293 C-89.89319778 36.96564405 -90.91883786 34.7629241 -91.3125 31.0625 C-90.95575962 27.56644429 -90.09609412 25.79479215 -88 23 C-84.46715184 20.64476789 -82.54645572 20.39268047 -78.39453125 20.5 C-73.81297016 21.45667181 -71.13883194 24.71849389 -68 28 C-67.175 28.8146875 -66.35 29.629375 -65.5 30.46875 C-63.31383291 32.62759 -61.14998633 34.80522229 -59 37 C-56.121582 35.6685435 -53.80803749 34.16701678 -51.3828125 32.12890625 C-50.70057617 31.56010742 -50.01833984 30.99130859 -49.31542969 30.40527344 C-48.59258789 29.7971582 -47.86974609 29.18904297 -47.125 28.5625 C-39.52164278 22.23341214 -31.81832929 16.06054702 -24 10 C-23.39542969 9.52981445 -22.79085937 9.05962891 -22.16796875 8.57519531 C-20.3638336 7.17271762 -18.55746173 5.77318707 -16.75 4.375 C-16.20053711 3.94864258 -15.65107422 3.52228516 -15.08496094 3.08300781 C-9.78069117 -1.00212186 -6.54294514 -1.81623132 0 0 Z " fill="#4EDBC4" transform="translate(187,97)"/>
<path d="M0 0 C1.35106087 0.0001133 1.35106087 0.0001133 2.72941589 0.00022888 C3.69825211 0.00539017 4.66708832 0.01055145 5.6652832 0.01586914 C7.15714897 0.01799156 7.15714897 0.01799156 8.67915344 0.02015686 C11.85815428 0.02575779 15.03708488 0.03831043 18.21606445 0.05102539 C20.37036031 0.05604027 22.52465727 0.0606032 24.67895508 0.06469727 C29.9621822 0.07572751 35.24536831 0.09246653 40.52856445 0.11352539 C40.16504883 0.76836914 39.8015332 1.42321289 39.42700195 2.09790039 C35.6149088 9.01831566 32.01718509 16.02494516 28.52856445 23.11352539 C23.91988322 23.04448862 19.3120955 22.95644653 14.70410156 22.85107422 C13.13779644 22.81790007 11.57137394 22.78984481 10.00488281 22.76708984 C7.74794683 22.73340423 5.49207919 22.6810849 3.2355957 22.62524414 C2.19155327 22.61565926 2.19155327 22.61565926 1.12641907 22.60588074 C-4.2274729 22.44538605 -7.40484332 21.03759401 -11.28393555 17.42602539 C-13.04210236 14.00222685 -13.24709361 10.82102861 -12.47143555 7.11352539 C-9.47530141 1.77558527 -5.98411709 -0.01676223 0 0 Z " fill="#455D6F" transform="translate(247.471435546875,308.886474609375)"/>
<path d="M0 0 C-1.46966358 3.39859703 -3.38037514 5.64963709 -6 8.25 C-6.70125 8.95640625 -7.4025 9.6628125 -8.125 10.390625 C-10 12 -10 12 -12 12 C-10.53033642 8.60140297 -8.61962486 6.35036291 -6 3.75 C-5.29875 3.04359375 -4.5975 2.3371875 -3.875 1.609375 C-2 0 -2 0 0 0 Z " fill="#5D5D5D" transform="translate(54,42)"/>
</svg>
