<?xml version="1.0" encoding="UTF-8"?>
<svg version="1.1" xmlns="http://www.w3.org/2000/svg" width="512" height="512">
<path d="M0 0 C0.74283643 -0.00297112 1.48567286 -0.00594224 2.25101948 -0.0090034 C4.71781378 -0.01761242 7.18455911 -0.01919199 9.65136719 -0.02069092 C11.42952069 -0.02532473 13.2076732 -0.03035014 14.98582458 -0.03573608 C19.80238689 -0.04881027 24.61893528 -0.0552956 29.43551254 -0.05974674 C32.45152724 -0.06268631 35.46753821 -0.06679281 38.48355103 -0.07125092 C47.93956261 -0.08491444 57.39556558 -0.09458597 66.85158634 -0.09845281 C77.73021836 -0.10292701 88.60872432 -0.12045011 99.48731804 -0.1494534 C107.91993397 -0.17114707 116.35251465 -0.18116122 124.78515816 -0.18249393 C129.81023137 -0.18353671 134.83518591 -0.18933127 139.86022949 -0.20731354 C144.59468279 -0.22392708 149.32892991 -0.22588606 154.06340218 -0.21717453 C155.78858052 -0.21641113 157.51377056 -0.22065325 159.23892021 -0.23063278 C183.84466891 -0.36447395 206.52338376 5.25773831 224.57324219 22.89044189 C237.81720966 36.42684241 246.34851373 55.31934847 246.22827148 74.38018799 C246.223936 75.27369965 246.21960052 76.1672113 246.21513367 77.08779907 C246.20955948 77.7651712 246.20398529 78.44254333 246.19824219 79.14044189 C246.98956543 79.13378006 247.78088867 79.12711823 248.59619141 79.12025452 C256.12585469 79.05965001 263.65539645 79.01422043 271.1852417 78.98500538 C275.05459159 78.96947977 278.92373668 78.94848781 282.79296875 78.91412354 C286.54073032 78.88105389 290.28829741 78.86349097 294.03619385 78.85581017 C295.45203709 78.85035057 296.86787209 78.83969551 298.28363037 78.82325172 C322.62108824 78.55232914 343.6970212 85.09215308 361.41308594 102.26934814 C378.67521479 119.68356624 385.35460365 142.95619232 385.34350586 166.94000244 C385.34854378 168.51977119 385.34854378 168.51977119 385.35368347 170.13145447 C385.36314481 173.59670202 385.36513428 177.06190099 385.36621094 180.52716064 C385.36942727 182.95081095 385.37279162 185.37446106 385.376297 187.79811096 C385.38227652 192.87438405 385.38413815 197.95064014 385.38354492 203.0269165 C385.38344346 209.50484773 385.39708441 215.98266895 385.41431713 222.46057415 C385.42548267 227.46656283 385.42746272 232.47252531 385.4269352 237.47852516 C385.42810888 239.86532787 385.43249602 242.25213139 385.44026756 244.63892174 C385.5224577 272.49201859 382.1238973 295.94085145 362.19824219 317.14044189 C346.95134005 331.19389642 328.31093924 338.62120306 307.63574219 338.26544189 C306.12270508 338.25190674 306.12270508 338.25190674 304.57910156 338.23809814 C302.11855761 338.21477545 299.65853323 338.18204952 297.19824219 338.14044189 C297.20934525 338.70563034 297.2204483 339.27081879 297.23188782 339.85313416 C297.34260232 345.74162983 297.41795903 351.62982937 297.47290039 357.519104 C297.49802727 359.7161663 297.53213465 361.91314514 297.57543945 364.10992432 C297.6361698 367.27004594 297.66447052 370.42906147 297.68652344 373.58966064 C297.71232986 374.57004807 297.73813629 375.55043549 297.76472473 376.56053162 C297.76646228 380.79599254 297.52891227 383.5093843 295.54272461 387.29986572 C289.90027718 390.40508589 284.43111128 390.62067721 278.19824219 389.14044189 C274.54090763 386.25061307 272.44635709 382.61485566 270.02246094 378.67559814 C268.44646582 376.46782458 266.85992103 374.28412134 265.22924805 372.11798096 C264.59205432 371.27094085 264.59205432 371.27094085 263.94198799 370.40678883 C252.74775544 355.72347439 240.16494058 342.30237907 221.18079853 339.24320698 C195.03428385 335.95362022 167.88735094 337.54539618 141.67987061 339.52073669 C127.12210794 340.55685302 115.10213393 339.38918141 101.94824219 332.45294189 C101.28622803 332.1111792 100.62421387 331.7694165 99.94213867 331.41729736 C80.79813919 321.17095158 67.88766094 303.51983392 61.19824219 283.14044189 C60.52681094 280.80847513 59.85958165 278.47529071 59.19824219 276.14044189 C58.79449371 276.56417587 58.39074524 276.98790985 57.97476196 277.42448425 C53.75134165 281.84769448 49.49602749 286.23835081 45.22119141 290.61187744 C43.63213404 292.24607296 42.05126252 293.88827131 40.47900391 295.53863525 C38.21141002 297.91595142 35.91548785 300.26249504 33.61230469 302.60528564 C32.92020905 303.34383286 32.2281134 304.08238007 31.51504517 304.8433075 C27.04176879 309.32105602 23.79239597 311.00388828 17.43783569 311.35749817 C13.86029847 311.01077145 11.79044693 309.53324627 9.19824219 307.14044189 C8.25486843 304.31032063 8.07651389 302.59744272 8.0847168 299.66900635 C8.08483009 298.31794548 8.08483009 298.31794548 8.08494568 296.93959045 C8.09268761 295.48633614 8.09268761 295.48633614 8.10058594 294.00372314 C8.10200089 293.00914597 8.10341583 292.01456879 8.10487366 290.98985291 C8.11047458 287.81085207 8.12302723 284.63192147 8.13574219 281.45294189 C8.14075707 279.29864604 8.14532 277.14434907 8.14941406 274.99005127 C8.16044431 269.70682415 8.17718332 264.42363804 8.19824219 259.14044189 C7.60627548 259.14862442 7.01430878 259.15680695 6.40440369 259.16523743 C3.67815831 259.19805773 0.95195472 259.21815105 -1.77441406 259.23809814 C-3.17077087 259.25773621 -3.17077087 259.25773621 -4.59533691 259.277771 C-22.93462251 259.37811727 -39.24366365 252.40728899 -52.80175781 240.14044189 C-53.55972656 239.47528564 -54.31769531 238.81012939 -55.09863281 238.12481689 C-69.75479268 224.47942667 -78.37332604 205.1111507 -79.08908081 185.17004395 C-79.23831499 178.44930925 -79.24961599 171.72884102 -79.23766589 165.00669527 C-79.23454061 162.28604732 -79.24070311 159.56544965 -79.24670464 156.84480894 C-79.26067459 150.41564007 -79.2592522 143.9866043 -79.24780273 137.55743408 C-79.23633171 130.97148285 -79.25039711 124.38593935 -79.27719921 117.80004179 C-79.2995022 112.10186332 -79.30596098 106.40381145 -79.3001228 100.70559251 C-79.29678625 97.32152864 -79.29894355 93.93772576 -79.31637383 90.55369949 C-79.38382318 73.5985221 -79.36781232 57.32735073 -71.23925781 41.95294189 C-70.90265137 41.3013208 -70.56604492 40.64969971 -70.21923828 39.97833252 C-61.06097384 23.05428828 -45.19267189 9.61430794 -26.78613281 3.78497314 C-17.92154032 1.24198596 -9.20864107 -0.01177163 0 0 Z M-43.80175781 38.14044189 C-54.53452224 51.39141157 -59.11738163 64.59384512 -59.07641602 81.52838135 C-59.08152695 82.63208069 -59.08663788 83.73578003 -59.09190369 84.8729248 C-59.10573579 88.49991367 -59.10484755 92.12671113 -59.10253906 95.75372314 C-59.10642975 98.29044159 -59.11076519 100.82715938 -59.11552429 103.36387634 C-59.12297301 108.67378115 -59.12284474 113.98361657 -59.11743164 119.29351807 C-59.11139867 125.40279753 -59.12369378 131.51184629 -59.14500171 137.62108642 C-59.16484573 143.53121301 -59.16777908 149.44126912 -59.16426659 155.35143089 C-59.1647777 157.85070525 -59.16997577 160.34998345 -59.18007851 162.84923744 C-59.19250864 166.35444176 -59.18561131 169.85912199 -59.17407227 173.36431885 C-59.181716 174.38237106 -59.18935974 175.40042328 -59.19723511 176.44932556 C-59.07786194 192.97629577 -53.00999814 207.84823974 -41.47363281 219.73419189 C-26.04450879 233.62942639 -8.98487941 235.41090656 10.93847656 235.61895752 C12.18564453 235.6453833 13.4328125 235.67180908 14.71777344 235.69903564 C16.40543823 235.71921753 16.40543823 235.71921753 18.12719727 235.73980713 C21.54264687 236.18537139 23.44600925 237.10266209 26.19824219 239.14044189 C27.69807304 242.1401036 27.43726274 245.2599115 27.51464844 248.55450439 C27.53542953 249.28414398 27.55621063 250.01378357 27.57762146 250.76553345 C27.64306135 253.09873953 27.70197587 255.43205911 27.76074219 257.76544189 C27.80393271 259.34618285 27.84754718 260.92691228 27.89160156 262.50762939 C27.998737 266.38511693 28.10002001 270.26271875 28.19824219 274.14044189 C29.11951904 273.32269287 30.0407959 272.50494385 30.98999023 271.66241455 C34.06057693 268.99419259 37.27282127 266.72828288 40.63500977 264.44268799 C48.87311814 258.26937195 56.35081129 251.64188321 58.38616943 241.14447021 C60.22001822 227.91240234 59.49515904 214.36560962 58.99755859 201.06048584 C58.77476236 194.4950504 58.69913837 187.92657911 58.6087389 181.35822105 C58.53669714 176.24508074 58.4423174 171.136442 58.27018738 166.02560425 C57.58604439 143.23651038 62.09164033 123.75600735 77.19824219 106.14044189 C78.11863281 105.05182861 78.11863281 105.05182861 79.05761719 103.94122314 C92.42088804 89.40723839 112.94345471 80.961089 132.42611694 80.03448296 C134.86277392 79.97918493 137.29812297 79.9516184 139.73535156 79.93511963 C140.65335541 79.92522003 141.57135925 79.91532043 142.5171814 79.90512085 C145.5254262 79.87375122 148.53368675 79.84884633 151.54199219 79.82403564 C153.63806549 79.80344488 155.73413484 79.78244788 157.8302002 79.76106262 C163.3275633 79.70606105 168.82496252 79.65655576 174.3223877 79.60821533 C179.93989243 79.55783959 185.55734521 79.50223769 191.17480469 79.44708252 C202.18257272 79.33976927 213.19038601 79.2382655 224.19824219 79.14044189 C224.07451107 77.10219433 223.94107643 75.06453475 223.80371094 73.02716064 C223.69385864 71.3249939 223.69385864 71.3249939 223.58178711 69.58843994 C221.91170069 54.57467136 213.1167951 41.78066889 201.85449219 32.13262939 C186.75851215 20.81064437 169.30227371 19.83165751 151.13964844 19.88165283 C149.46426238 19.87893634 147.78887752 19.87537174 146.11349487 19.87103271 C141.60110875 19.86198467 137.08881501 19.86542138 132.57642746 19.87179089 C127.83130411 19.87689046 123.08618814 19.87214852 118.34106445 19.86901855 C110.37579951 19.86539037 102.41057178 19.87014779 94.4453125 19.87969971 C85.26521986 19.89058203 76.0852161 19.88705564 66.90512562 19.8760469 C58.99219158 19.86694122 51.07928414 19.86570473 43.16634655 19.87092423 C38.45391066 19.87402595 33.74151639 19.87450314 29.02908325 19.86785126 C24.5966391 19.86203048 20.1643084 19.86616034 15.73187637 19.87763977 C14.11509514 19.88026124 12.49830418 19.87956486 10.88152695 19.87511444 C-10.13105089 19.82265207 -28.01966352 23.30537733 -43.80175781 38.14044189 Z M248.19824219 99.14044189 C248.19237595 100.2221315 248.1865097 101.30382111 248.1804657 102.41828918 C248.12296003 112.6709108 248.05005607 122.92332596 247.96252728 133.17573643 C247.91802315 138.44512429 247.87872439 143.71443838 247.85180664 148.98394775 C247.82557287 154.08048223 247.78503253 159.17672968 247.73505592 164.27308464 C247.71852172 166.20603775 247.70692457 168.13904034 247.70062828 170.07205391 C247.6496338 184.30411066 247.12743959 198.33098494 240.94824219 211.45294189 C240.64595703 212.11680908 240.34367188 212.78067627 240.03222656 213.46466064 C237.35920462 219.15382536 234.13229786 224.23173279 230.19824219 229.14044189 C229.66714844 229.83395752 229.13605469 230.52747314 228.58886719 231.24200439 C217.35745814 245.09407555 199.62277118 253.53029722 182.19824219 256.14044189 C174.26202545 256.84650787 166.28382748 256.74677403 158.32324219 256.74981689 C156.05923294 256.76482865 153.79523453 256.78156198 151.53125 256.79992676 C145.62625575 256.84327611 139.72140913 256.86352693 133.81628418 256.87866211 C127.76903672 256.89835101 121.72194602 256.94030712 115.67480469 256.98028564 C103.8493326 257.055236 92.02389618 257.10573951 80.19824219 257.14044189 C80.18120747 259.06554132 80.16903894 260.99068424 80.15893555 262.91583252 C80.15163925 263.9878894 80.14434296 265.05994629 80.13682556 266.16448975 C80.39547278 278.697281 87.60175506 290.71509269 96.07324219 299.51544189 C108.92589342 311.57686384 123.29432951 316.32760925 140.75830078 316.23468018 C142.93606554 316.23189479 145.11383044 316.22922476 147.29159546 316.22665405 C149.01561144 316.22207876 149.01561144 316.22207876 150.77445602 316.21741104 C156.87668649 316.20603986 162.9788436 316.22657039 169.08105469 316.24200439 C176.83900588 316.26030098 184.59655824 316.26894374 192.35449219 316.24005127 C198.63164254 316.21751059 204.90792845 316.22894328 211.18501663 316.26305771 C213.57315442 316.26982347 215.96136166 316.26415672 218.34943771 316.24570084 C221.6937256 316.22151437 225.03520383 316.2407615 228.37939453 316.26983643 C229.36043655 316.25244919 230.34147858 316.23506195 231.35224915 316.21714783 C237.72501227 316.33214311 240.95726892 317.79234415 245.48147869 322.30222225 C246.04801064 322.90883473 246.6145426 323.51544722 247.19824219 324.14044189 C248.38002329 325.29581511 249.56441932 326.44852659 250.75268555 327.597229 C251.93363966 328.78494657 253.11204588 329.97520214 254.28808594 331.16778564 C255.23307701 332.11845665 255.23307701 332.11845665 256.19715881 333.08833313 C258.17917308 335.08242018 260.15785527 337.07976152 262.13574219 339.07794189 C264.7670228 341.73572144 267.40154412 344.39022645 270.03808594 347.04278564 C270.64216782 347.65516586 271.24624969 348.26754608 271.86863708 348.89848328 C273.29305827 350.33138677 274.74299821 351.73885241 276.19824219 353.14044189 C276.52824219 353.14044189 276.85824219 353.14044189 277.19824219 353.14044189 C277.20235107 352.22754395 277.20645996 351.314646 277.21069336 350.37408447 C277.23773621 346.97209411 277.28688081 343.57189129 277.35083008 340.17047119 C277.37396212 338.70118243 277.38839459 337.23172897 277.39379883 335.76226807 C277.40312497 333.64379845 277.44418345 331.52790124 277.49121094 329.40997314 C277.50692139 328.13742676 277.52263184 326.86488037 277.53881836 325.55377197 C278.37823839 321.20873998 279.64431843 319.7323762 283.19824219 317.14044189 C286.23754883 316.52862549 286.23754883 316.52862549 289.60839844 316.53887939 C290.84654297 316.52341064 292.0846875 316.50794189 293.36035156 316.49200439 C294.64748047 316.49973877 295.93460938 316.50747314 297.26074219 316.51544189 C316.04479751 316.51544189 332.182354 312.86072554 346.08496094 299.39044189 C355.57777766 289.2834873 362.34590715 276.57446284 362.38574219 262.45294189 C362.33877498 261.0148506 362.28236954 259.57683846 362.19824219 258.14044189 C362.85824219 258.14044189 363.51824219 258.14044189 364.19824219 258.14044189 C364.29208167 243.90969528 364.36214722 229.67899731 364.40549088 215.44800377 C364.42630124 208.83886302 364.454499 202.22993119 364.5 195.62091064 C364.54369149 189.23422843 364.56742848 182.84774628 364.57775116 176.46092606 C364.58510082 174.03305541 364.59945218 171.60519482 364.62116241 169.17741013 C364.80434425 147.82980036 362.80189656 131.62066105 347.60449219 115.46075439 C333.0122329 101.38964722 314.96976914 98.78955452 295.46386719 98.94512939 C294.09096485 98.94887092 292.7180598 98.95171249 291.34515381 98.95370483 C287.77449856 98.96125176 284.20401241 98.98082046 280.63342285 99.00311279 C276.97276088 99.02376677 273.31207093 99.03274786 269.65136719 99.04278564 C262.50025737 99.0640772 255.34926096 99.09810147 248.19824219 99.14044189 Z M101.38574219 135.01544189 C94.40084848 143.53127121 94.28287913 152.50732917 95.19824219 163.14044189 C96.81081432 171.04204534 101.58596311 176.64207502 106.81640625 182.57305908 C108.30775987 184.26466513 109.78129739 185.97071961 111.25292969 187.67950439 C113.4454389 190.22187149 115.64505319 192.7578032 117.85058594 195.28887939 C120.59226964 198.43794907 123.31646035 201.60140126 126.0300293 204.77471924 C127.04818598 205.96442107 128.06848834 207.15229042 129.09106445 208.3381958 C131.17733525 210.75931743 133.23317353 213.18440953 135.22167969 215.68731689 C138.9810498 220.3482554 142.2088313 223.04560335 148.19824219 224.14044189 C154.17631383 224.78029666 158.20330844 224.75509624 163.19824219 221.14044189 C165.19547277 219.17668445 167.08222863 217.2200609 168.94824219 215.14044189 C169.47337402 214.56374756 169.99850586 213.98705322 170.53955078 213.3928833 C174.51218094 208.99457101 178.27365972 204.44611516 181.98339844 199.82403564 C184.32401006 196.98805648 186.76914428 194.28191344 189.26074219 191.57794189 C193.19056606 187.31197445 196.85874993 182.9171904 200.40917969 178.33184814 C202.19824219 176.14044189 202.19824219 176.14044189 204.28808594 174.13262939 C209.67807494 168.51116847 211.60457116 160.0409256 211.47558594 152.44512939 C210.28423145 142.54514143 205.12396879 134.13359909 197.51074219 127.89044189 C188.15140361 121.42720054 178.43218721 119.88409408 167.19824219 121.14044189 C164.4184685 121.94654012 161.94239019 122.89725366 159.34667969 124.16778564 C156.12042772 125.6283979 153.53226397 126.61244215 150.10058594 125.39825439 C149.12798828 124.83751221 149.12798828 124.83751221 148.13574219 124.26544189 C132.19386573 115.23697325 112.98437749 122.66616422 101.38574219 135.01544189 Z " fill="#000000" transform="translate(97.8017578125,58.85955810546875)"/>
</svg>
