<svg xmlns="http://www.w3.org/2000/svg" viewBox="0 0 16 16" fill="none" shape-rendering="crispEdges"><metadata xmlns:rdf="http://www.w3.org/1999/02/22-rdf-syntax-ns#" xmlns:xsi="http://www.w3.org/2001/XMLSchema-instance" xmlns:dc="http://purl.org/dc/elements/1.1/" xmlns:dcterms="http://purl.org/dc/terms/"><rdf:RDF><rdf:Description><dc:title>Pixel Art</dc:title><dc:creator>DiceBear</dc:creator><dc:source xsi:type="dcterms:URI">https://www.figma.com/community/file/1198754108850888330</dc:source><dcterms:license xsi:type="dcterms:URI">https://creativecommons.org/publicdomain/zero/1.0/</dcterms:license><dc:rights>„Pixel Art” (https://www.figma.com/community/file/1198754108850888330) by „DiceBear”, licensed under „CC0 1.0” (https://creativecommons.org/publicdomain/zero/1.0/)</dc:rights></rdf:Description></rdf:RDF></metadata><mask id="viewboxMask"><rect width="16" height="16" rx="0" ry="0" x="0" y="0" fill="#fff" /></mask><g mask="url(#viewboxMask)"><path d="M4 2h8v1h1v3h1v2h-1v3h-1v1H9v1h4v1h1v2H2v-2h1v-1h4v-1H4v-1H3V8H2V6h1V3h1V2Z" fill="#eac393"/><path d="M4 2h8v1h1v3h1v2h-1v3h-1v1H4v-1H3V8H2V6h1V3h1V2Z" fill="#fff" fill-opacity=".1"/><path d="M10 13h3v1h1v2H2v-2h1v-1h3v1h4v-1Z" fill="#ae0001"/><path fill="#fff" fill-opacity=".2" d="M4 13h1v3H4zM11 13h1v3h-1z"/><path fill="#fff" d="M12 5H9v3h3zM7 5H4v3h3z"/><path fill="#76778b" d="M12 6h-2v1h2zM7 6H5v1h2z"/><path fill="#fff" fill-opacity=".7" d="M12 6h-1v1h1zM7 6H6v1h1z"/><mask id="beardVariant02-a" style="mask-type:luminance" maskUnits="userSpaceOnUse" x="5" y="11" width="6" height="3"><path opacity=".9" d="M5 11h6v1h-1v1H9v1H7v-1H6v-1H5v-1Z" fill="#91cb15"/></mask><g mask="url(#beardVariant02-a)"><path fill="#91cb15" d="M0 0h16v16H0z"/><path fill="#fff" fill-opacity=".3" d="M0 0h16v16H0z"/></g><path d="M10 9v1H9v1H7v-1h2V9h1Z" fill="#de0f0d"/><g fill="#91cb15"><path d="M5 0h1v1H5V0Z"/><path d="M2 3h1V1h2v1h1V1h1v1h1V1H7V0h2v2h1V1h1v1h1V1h1v1h1v1h-1v1H4v1H3v1H2V5H1V4h1V3Z"/><path d="M2 3H1V2h1v1ZM1 6H0V5h1v1ZM2 8H1V6h1v2ZM2 8h1v2H2V8Z"/><path fill-rule="evenodd" clip-rule="evenodd" d="M14 4h-1v2h2V5h1V4h-1V3h-1v1Zm0 0h1v1h-1V4Z"/><path d="M12 1h-1V0h1v1ZM13 8h1v2h-1V8Z"/></g></g></svg>